<mxfile host="Electron" modified="2023-12-06T15:30:50.549Z" agent="Mozilla/5.0 (Windows NT 10.0; Win64; x64) AppleWebKit/537.36 (KHTML, like Gecko) draw.io/22.1.2 Chrome/114.0.5735.289 Electron/25.9.4 Safari/537.36" etag="0D_p9tuOn9ns69FwYCUA" version="22.1.2" type="device">
  <diagram name="Page-1" id="0O-QEG6I1nJvYBVbPnr6">
    <mxGraphModel dx="1480" dy="866" grid="1" gridSize="10" guides="1" tooltips="1" connect="1" arrows="1" fold="1" page="1" pageScale="1" pageWidth="1169" pageHeight="827" math="0" shadow="0">
      <root>
        <mxCell id="0" />
        <mxCell id="1" parent="0" />
        <mxCell id="K3-YJQwZbEx7j-FqKvEN-1" value="" style="rounded=0;whiteSpace=wrap;html=1;" vertex="1" parent="1">
          <mxGeometry x="370" y="220" width="270" height="140" as="geometry" />
        </mxCell>
        <mxCell id="K3-YJQwZbEx7j-FqKvEN-2" value="Conteneur1 TrainTradeCrypto&amp;nbsp;" style="rounded=0;whiteSpace=wrap;html=1;" vertex="1" parent="1">
          <mxGeometry x="520" y="190" width="120" height="30" as="geometry" />
        </mxCell>
        <mxCell id="K3-YJQwZbEx7j-FqKvEN-3" value="" style="rounded=0;whiteSpace=wrap;html=1;" vertex="1" parent="1">
          <mxGeometry x="370" y="420" width="270" height="120" as="geometry" />
        </mxCell>
        <mxCell id="K3-YJQwZbEx7j-FqKvEN-4" value="Conteneur2 TimeScaleDB" style="rounded=0;whiteSpace=wrap;html=1;" vertex="1" parent="1">
          <mxGeometry x="520" y="390" width="120" height="30" as="geometry" />
        </mxCell>
        <mxCell id="K3-YJQwZbEx7j-FqKvEN-9" value="" style="shape=image;verticalLabelPosition=bottom;labelBackgroundColor=default;verticalAlign=top;aspect=fixed;imageAspect=0;image=https://juliensalinas.com/en/images/timescale.png;clipPath=inset(5.75% 31% 33.91% 32.33%);" vertex="1" parent="1">
          <mxGeometry x="592" y="494.18" width="48" height="45.82" as="geometry" />
        </mxCell>
        <mxCell id="K3-YJQwZbEx7j-FqKvEN-16" value="" style="shape=image;verticalLabelPosition=bottom;labelBackgroundColor=default;verticalAlign=top;aspect=fixed;imageAspect=0;image=data:image/png,iVBORw0KGgoAAAANSUhEUgAAA+oAAAD6CAYAAAA2oL3UAAAAAXNSR0IArs4c6QAAAARnQU1BAACxjwv8YQUAAAAJcEhZcwAAEnQAABJ0Ad5mH3gAAH86SURBVHhe7Z0FmGRnlf7PTLu7u427S1wmTkgIBAsL7BKcDSwssOwuLCzOHyfBNiyLhhghLpNkkoxkXHqse9rd3WX+33u6GmZCZHr6q6pbVe8vz32q+3anp7vuvd933qNzThuEEEIIIYQQQgghjmCu65UQQgghhBBCCCEOgEKdEEIIIYQQQghxEBTqhBBCCCGEEEKIg6BQJ4QQQgghhBBCHASFOiGEEEIIIYQQ4iAo1AkhhBBCCCGEEAdBoU4IIYQQQgghhDgICnVCCCGEEEIIIcRBUKgTQgghhBBCCCEOgkKdEEIIIYQQQghxEBTqhBBCCCGEEEKIg6BQJ4QQQgghhBBCHASFOiGEEEIIIYQQ4iAo1AkhhBBCCCGEEAdBoU4IIYQQQgghhDgICnVCCCGEEEIIIcRBUKgTQgghhBBCCCEOgkKdEEIIIYQQQghxEBTqhBBCCCGEEEKIg6BQJ4QQQgghhBBCHASFOiGEEEIIIYQQ4iAo1AkhhBBCCCGEEAdBoU4IIYQQQgghhDgICnVCCCGEEEIIIcRBUKgTQgghhBBCCCEOgkKdEEIIIYQQQghxEBTqhBBCCCGEEEKIg6BQJ4QQQgghhBBCHASFOiGEEEIIIYQQ4iAo1AkhhBBCCCGEEAdBoU4IIYQQQgghhDgICnVCCCGEEEIIIcRBUKgTQgghhBBCCCEOgkKdEEIIIYQQQghxEBTqhBBCCCGEEEKIg6BQJ4QQQgghhBBCHASFOiGEEEIIIYQQ4iAo1AkhhBBCCCGEEAdBoU4IIYQQQgghhDgICnVCCCGEEEIIIcRBUKgTQgghhBBCCCEOgkKdEEIIIYQQQghxEBTqhBBCCCGEEEKIg6BQJ4QQQgghhBBCHASFOiGEEEIIIYQQ4iAo1AkhhBBCCCGEEAcx57TB9THxAnj7hycmZGB8VPrHxmRwfEyGxsfNORwTMmqOEdfr+OlJ/X8mzf+DA//NnTNHguZM+VvwGho0V0LmBknY3LkSFhRsjiCJCgmVqOAQiQgOlkjzGhUSYr53jv4/hBBCCCGEEEKcBYW6h8CbPDY5YYT4uAwaQT5khPiQEeWDY+PSPjIozYMD0jI4KO3Dg9IxPCRdI8PSOzoifeZ7+/R1VMU7GJ88rT8Lsj3YCG6IcRA6N1hFOI4YI87jQsMkJjRU0iOiJCUiUpLCIyQlPFLSI6Mk1pwPN0J+WrzjwM+B8CeEEEIIIYQQ4j0o1N0E3tTJ05NGUE8aYT0poxOT0jzULye7O6W0s10qerr046reHukxQnzCFS13N3OMEIc4z4+Jk4LoOJkXnyiLE5NlUUKy5ETHSmRIsBH/cyV47lyNulO4E0IIIYQQQohnoVB3E0hhr+rrke1NDbKntUmOdrZJ42C/RtORwo6oOMT5hCuN3ZNAege5hDjS5SHKEU1PCAtX4b42JUPWpWXIsqRUSQ6P0O8nhBBCCCGEEOIZKNQtgTexxgjzwx1tstcI8yMQ5gP9Gi1HCjvqz0eRru7QtxtiHIIdKfBIl0fafGpEpBTHJciq5HRZl5ohCxOSVOBTuBNCCCGEEEKI+6BQnwVo9tY40Cf72prlKNLZe7ulrr9XGoxAbx0a0KZwvkyIEeXxYeGSGRUtudGxmi6/ID5JViSnqoBHBJ4QQgghhBBCiF0o1GcIIuJo/FbRO1Vjjnrzwx2tUmY+7hwZ1np0fwS16qhtL45NkEWJybLEHAsSkqTECPbC2HjtNM9IOyGEEEIIIYTMHgr1cwBj0DAircUI9Nq+XtnX3iI7mxs0kl7b3+v6rsACkfYF8YmyOT1bNmVkSV50rGSbIzYkVFPoCSGEEEIIIYScHxTqrwME+vD4hHSNDkuNEehP1VXJg5VlUtXbrePVCGa3z9FRcJdl58tbCufJyuQ0SY2I4qx2QgghhBBCCDlPKNRfB8wt39HcKL8tK5VHayq0KRxS3/mG/T1IjQ8LCtamc28vXig35pdIckSE66uEEEIIIYQQQs4VCvVXgDdjdGJCHq+tlD9XlWl6O1Lee8dGHdux3SnMMf+hjj0pPELmxyfKNbmFckvRfEkJj2Q6PCGEEEIIcTuw4zFtqXcMU5dGtbnzoB5j+nmfOfA5zveZ7xkcm8qSxdjkkckJGTOHYsz+fvP/TNv/sHPRaDk8OEg/D56D8cbBEjo3SMKDgiQmNEyiQ0Ik1rzGu464sDBtvpxsbOFQ8z3MNSUzgUL9DDBKbb8R5g9VnVKBfqq3S7pHhnXWOTl3sJBFGsGeHR2jc9mvzCmQK7PyJT82junwPgaWh5ahQdlaX+M6Q9wBxiEuSEjUaQqEEEI8AwIxe4291z0y4jpz/sSGhuoajlG2xD7oFdVlbHJMVcL1QgPn9uFB/Rhiu3d0SoBDfCMjdnRiUgX32OSkjBsBPqGvp6fOma/hHBpAT38dohw5s7D5zwzM4evTn8GCRQbptC07x/Xx1DFXRTyaK4cEGQFvXiHMIeLDzCsCWRDryDZNCY+QJPMxxiDnGFsZPZ6iglkyChoG+uRoZ4e0GdvTBkFz52jA8PLsPNcZ34JC3YCU9qNdHfJCY53sbGmQl1sa9cGHZ43MDngblyQly6b0bLkkM1dT4zHujfgG2LDgvLpj+1bXGeIOMPrwHcWL5Lr8InrbCSHEA0DMwe777qE9KvBmCxyuG9Iy5d9WbTTiYC7X8vMEUe+O4SENEsCRgo8hyCHMu4xtjgDawNiYXjPY74h44/8Z0tdxFfQQ5U4TN7gfYkJDNdoeGxJm7pdQiQsLV9GeYgR7WkSUpEVGSbo5MiKjzRFlRH1kwN1HO5ob5Hflx+Rge4vrzOwIDwqWpUaHfH/zFa4zvkVAC3WIkJq+HtnT2iRP1lXJsw010jjQ7/oqsQkazq1OSZercwvlwowcfWjgYUT0nTgXeJufa6yVLQ/f4zpD3MGihGT5lxXr5H3zl6iHnhDibBBxg9BDJl58aLiEBwdzN/Mxynu65H9PHJFvHthlJXMSkdMVyaly96XXajYhoqvk3Gk3gry0s01OmetSP9An9f19UmcOjERuGuyXHiPSR6dT0v0QlI1mRUVLbnSs5MXEqQO/IDbeCPipyDsOpNb7e9T9sZoK+fbB3fK8sT1tEBkcIpvTs+SpG251nfEtgr5kcH0cMGCDhQeurLtL7qs8KXebhfq5hlrdcIl7wOJa3dcjB9tbdcGF1zAiKERre5jq41zwrOC6/absqOsMcQfwpm8yG8lKY+RRqBPiDBDHGDs9qfWriN51DiPtdtDsYQNS098rRzvbZWdLoxrQqEHls+s7QJg/11Ajfyg/JrVGDNoAPxNHdGioruVw3pBz50B7i3xj/y65s/SAltvh84rebmkZGtCIuQ1nipNByj6yCMp6ujSA+KzRJQgg4vNmYzcPmPcAtjRS8eeapQYp9v645sCBhqg6bE8b4H2C8+O2+UtcZ3yLgHP3QXhAkOMm+MgLT8p3Du6Wwx2tU/UpxO0gfenPVeXy7mcelj+eOiZ1xthB1Dbg6y8IIYR4Bew/EAHYi9CECpFyCINuYytU9fbIC011cs+p4/KdQ7vlkzu2ytueekgufegPcv1j98nHXnxaSo1gP7OmlTifntFhOWhsv32W0munQQ31PeXH9ZX3xMxAjTneNzx/BGvSpNZpYzT0Nw+8LO8ydvMtT/5Zvrz3JQ0uoiRg2Ih76Bfeaf5LQAl1LJpl3Z3y/cN75APPPy6HzCINDxbxLFh8sMB8bf9O+dT2Z3X0Ha8DIYQQTwNxjv0I0Ts4kb9/ZK98cvtWefMTD8imB36jgvx9zz4m/7H7Rbn7+GGN9JX3dHLP8nFebGqQPS1NMjZhN5Uajp6qvh7Z1lSn9xUhtoAzESUB91SckNu3PSFbHrlH/m33C7KtsU6disQ/CRihDk/dA5Vl8p97XpTfnDyq6SVoOOGvU9GR6pEYFuHYmjk4TdCw76Xmes1q+EnpPq1HIoQQQtzJ1oYa+fbBl+UjLzwlb33qIbnZiPIPbXtSvrjnJbmr9IDaCjubG+VUb7eWarUND2qkb7qj9FQXaMawfBVEbF804gYRddtXET9vxPx8ZGBAVBFiEzgW0UgPJTjHujrkj+XH5TM7npM7XnpGflNWqinyXJn8i4AQ6rX9vfJbcwP/4vhBTRfB4unvPfSSwyPksuxc7TzqZNCx82BHi/yu7Jj84Mhe2d3apKMzCCGEEHfwbH2NEVIntEfNE7WV8mJTvY5kPdbVrnWRMIIxaxlGMfE/cK1R8tjppog3AhGwZY50tKmDhxB3gOwNOBLRHf3RmlPyk9L96mz89ckjUtHbxRICP8GvhTpu4iOdbfJ/J0vlVyeOqIc8EBrGocPh/IRE2ZJTqHMdnQ4yG050T3kGf3b0oDbQwOZGryAhhBDbQIzjQP0njdnAAs6Xx2srtWGVu5qT4aei8eC2xlpthkaIO8H91mHut90tTdr4904j2H9SekAeq6mUmr5et93nxDP4rVCHNxw16Kgpu+voAfWeBsqGnB0dI5vTs2VefIJ2hvQF4IFGZ080mPvRkX2a+dA6OMBmLIQQQgiZNWi6hYxKzE5HJNLdoE6dvZCIp4C1jHttT2uz/PDwXvnuod3yp4oTqn9Q/kt8E78T6rhRUb+xv61FO7RCpMNrHihyL3juXFmelCrX5ha6zvgWqP1Dh8uv7t8hj9ZWSMfIEMU6IYQQQmYFOmSjeS2ijMjkczcVPd2yz4gmW2OmCDlXEEXf3tygTZu/vHe77DQfo+Ec7Wnfw++EOtKanq6vli/tfUkerj4VcDdlXnSsrEvLkEWJya4zvgnm037zwC75xbFDrPEihBBCyKzAHGrU76I5oKdArfrOlgbXZ4R4lh5jPz9SUyEf2Pa4fOvAyzqJwN97dPkbfiXUkdqORfh7h/doRD0QG8FckJEjF6bnmAvrIznvrwEcLOgC/+uTpfK1/bukeWggYLIiCCGEEGKPTiNYMMaqvKfbI9H0adCgcFdLo5b2EeJpYDdDCzUNDsivThyWT7z0jOxsbWRvDh/CL4Q6bsQpT2mpdg8/3N4qg+bzQKMgJk42pGVKSXyC64xvgzT4uv5eeaTmlHznwG6p6evRc4QQQggh5wrGVt1XcVIGxkY9mmmJmmFkCL7YWO86Q4jngVhvMWL9qfpq+cb+XfJgVZlOtyDOx+eFOhbc7pFhFei/LTuqo74g2gORi7NyZWVymsSEhLrO+D5YXCDWMUbnztIDUtbd6VFvOCGEEEJ8F4yBPdbZIS811cm4F9J+T/V0GYFUpU2OmRlIvAXuPYwkfMaIdZSV/tmIdU80VSSzw6eFOkR6u7npnqirMiJun84SRCO5QGPOnDmSFhElV2TlS2FcvOus/wCxDm/43ScOyT2njktZT6eO3iOEEEIIeT3QPG5bU62m/3qjPrfN2KlTs9vbZIJZgcTLIMsDkw/uPnFEHqmuYN26w/FZoY5bqnt0WF5qrpdv7t9lxFtXwEZag41QvyQrV5Ylp0h8aJjrrH8BpwzGS9x59IA8UFkm1f09MnGaGx4hhBBCXh2Uy5V2tcnW+hrXGc8DEdQ0MCD3G9sFtcGURJ4HXZvmGlsZk5HCgoIkIjhYooJDNAM1ztjN00d8WJgkhIVLUnjEWUeyOVIiIv96JJrP8X2wuWPNgZ8TFRKiPxc/H/+Wk0FX+L2tTfLj0n36bPR4uCSEnDs+K9QRUX2+oU6+tm+nNusIxMZx04QFBct75i+RrKgY1xn/BSlsPzt6UP5Yflw6h9kN3lfBJhbE42/H3Dn+0TCEEEIcBFJ7D7a3yvGuDtcZ79A6NKCpxphiM8kgg8eArRFixHm4EdAQ1plR0VISlyBLE1NkbWqGXJyVI9fmFf31uCGvWG4pnC9vL1p41vHueYvl/QuWyQcWLpf3mde3Fy2QmwpL5Lr8YrkiO08uysyR9WmZsiQxWYpi4414D1XBjn8bzgEc2Ovx++BwgoyHWEf/hM/sfE52NTdIfwBmJPsCc077YL4DfuEHK8vkZ8cOyvbm+oBOg4Yn79LMXPnhhVdo+vu0Fw+pLQc6WuSaR/6kH/sTWOxyY2Ll1uJF8pkV6/yqJt9pwAH2XGOtbHn4HteZ2YPNa53ZIJclpaoHmoikRkTKhRk5ajj49rwGQpzPu555WJ6sq9KUTxs8ePXNcr0x8mGME2dxb8UJ+Unpfu347m0gFL+6/iIVgojKkrN5vLZSZ36jS74t3mUE9j8tXCZ5MXHqDEepqIpls9PCXIZknrabAT6a+vTsnXjq/N/OIfqs/xlBcubrJF7NJ+OnJ9Up0zY0pE4alF2gmRscR5irX9HTpaW7EMveJnRukBTGxstPLrxSNqZnaVaAN3mspkK+fXC3PG9sTxtEBofIZvN3PXXDra4zvoVPCnXMSf+f44e1IQIirIFMUVyCfGfjpXJ5dp6EB/3t4fJnoQ5CzMKyICFR3lWyWP552RoV78Q+7hDqcKy832yc7yheSGPFBe5npN3BC08IcS8U6oEBmrd9Zd8O+eWxQzqezduEBgXJprQs+bERRIsSks4SfsQ9Qv0TS1fLp1esk5zoWNcZz4Gyi5GJcS3LRcnDMF6NPY6G1z0jIzqyr7K3W6PahzpaVcB7o4QXdyHWrjcXzJM7jD2N6VFnOi88DYX62fiUUMcvur+tWb2jT9dVB/xcysTwcLkyu0B+sPkKras588Hyd6EO4PVbnJgsn1q2Tq7JLWR01g24Q6hDkH5y2Vq5ffEKyYiMcp0lhBDPQKEeGKCHEUZRPWYEoBNMXdhocFTfedEWuTq3QBLDIlxfIcAdQh3CE0LdaaWhiMhDsLcPDUnDYJ9ON6rs7ZEjHW1yqB2ivVuFvSdB4OQfFyyT2+YvUUeSt6BQPxuf2VWmOn8PyO/Kj8mzDTUBL9IhyQti4uW6vEIV7N70fnkLOCCOd3bIz44dCNiO/4QQQgg5G6QUP1tfIye7Ox0h0gHEWc/oiNqwtX19rrMkEJl22hTExskF6dnyjuJF8tElq+TjS1fLhxavkLebz1EiCJHpKfu+bWhQHjEieWt9tXQHeLayk/AJoY7FDbUe8LKgNh2CPdCJCQ2VZUkpcmlWnutMYAKP5EtN9fL78mNyqrdLU40IIYQQEphAmDcN9MuO5gap7e91nXUOiBRyzCx5Jeggj8jvx4xY//K6C+UTS9fIlpx8bX6HjFFPyPXSzjYtLz7c3uo6Q7yNTwj1QSPGkMb9X3u3q0jnCAGRhQnJ2nwKDeQCHXjOf32yVHsWYN467w5CCCEkMBk3NgHEBmp+bYhhRDRtiqSKnm5Nb2409gohrwQ9l3KiY+SdJQvl91e8ST69Yr2sTkmXuLAwj5TX7G1rloeqyz2eek9eHZ8Q6oc62rTOCJ0TOTt76iFGs4dLswM7mn4mo5MT8tPSA7o500tNCCGEBCajk5Pyp4oTVoQwGr6hr0pkSIjVprUvNtXJvtZm12eE/D249zBW7rZ5i+UXl1yt9fYY/eZu0J1+e3ODtRpxMjscL9TRDfGhqnI50N7CSLqLVSnpOsYpNZwds88Em/K9FSflsdoK1xlCCCGEBAooh9vX2iTHutpl0ELfmtC5c+VN+SVybW6R1c7hhzvaZL+xa1GzTshrAdcQRtrmx8TJBxaukK+su0huyC+e+qKbgNY61dMlvzlZqlF1H+o57pc4WqhjxuDWhhqtTWejsCmQ9nJFVr6sSk6TEHaYPQvUp2MqADqHwsFDCCGEkMCha3hY7q88qa+znVENkYTpMjcXlsitxQt01rQtMFr4cEer7GtrcZ0h5LXBrPPMqGgdxYymc+9dsFSi3Vi3jvFx+829ube1SYaYpepVHKv04NHZ0VwvTxrRVdHb5TpLFiYkyYb0TK/MhPQF0HRwe1O9/LmqXGeo0g9ICCGE+D8oe0PzODjrhyZmP5YW6e7Lk1JlZXKaXJCRLUsSkyUhLNz11dkB2+RYV4emwGOqESHnQqK5/3AvfnDRCrmxYJ4khbtnxN/46UktN36k5pTa0sR7OFao1/b1yiPVFdrUYLZeUX8BDU2uzyuW+fGJmgpDXp2qvh5dXHa3NHEDJIQQQgIAZGHubWuS8p4uK3s/RNCbXWIIjXvXpKbLPGN/2aJ+oE/r1J3YmZ44l6jgEFmTki4fW7JKm0pDvLsDlJHA6YWxbRDuxDs4TqhDkqMx2INVZbKzpVEjpEQkeM5cSTUbxfV5RZIdHeM6S14NbNAVvd3y8+OHpMNs3HT0EEIIIf4L6mgxovXRmkrXmdmBMsPsqBh5U36xhAUF6zn0B0J0HfaYDZABgN/5yboqZv+RGYH7E02lP7BoufasCnVD8G7E3J/opXC0q136RhlV9xaOE+oTRmTV9PXKH08dl1M9na6zBHPT31mySPJi4rRWhbw+3SPDsrW+WrtWohaMEEIIIf4Jml6VdXfKNkudqtMjo2SjEUKoS5/u9r4wPkn7A9lMN0ZU/dGaCiPUKdXJzLkmt1ADeO7sBv90XbU0DnCUoLdwnFDvHRuV7xx8WVOBGAmdAp6zjMhoec/8xTomhJwbSNv5zsHdUtnbzXuJEEII8VOOdLbpSClb41lL4hLkWiOAzgTlh4sTk+Uyi6Nx0Sj5RFeHvNBQJ4PGZiFkptyQXyJvLijR5nLuYHdro7QPD7o+I57GUUIdkc/dLY3yTH01R1acAWqjtuQUqGc3NMhxvhXHguwMeNiRVoaeB4QQQgjxL9B8+GB7i+wwQt2GSz4+LEwFOdLcXwkE/EUZORLuSoefLfjdO0aG5d6KE8YGZnoxmTnoBo9a9QvSs11n7IJS0ubBARm20KCRzBzHqD4srvUD/Zry3mRuCDYBmwK1UBDo8JahTmqO24Yx+B+4p7Cw/KXqlBzqaOUiQwghhPgZ1X09cqi91ZpDfkF8ktb9vlqH94TwcBXxS5NSNMJug4GxUXmirkpqzN+BumBCZgJGNS9LStWAHsYJ2gZZH8hMRbNG4nkcI9S7zA2AGdhP11drJJRMkRY51Wl0RXIaJfp5glmlLzXVS3Vvj+sMIeSNmDg9qamYaMhY198nVWajPtndKaWd7XLQGMV7Wps0gjV94BnDqCG87jSfv2y+jqkdB9pbzP/TJqd6urTOrXNkWJ1miCQR9zI0Pv7X64dO2EgPxjXZba4NmrXiumGcJa7b9HXEdcU1O2quMyIpDQN9+jNwL7CEiDgR3LO4t2044zFRZ3VKuqxLyXCdORsET3KjY+Ta3EJrQn3M2LwQQngu8awRMlMyjFZYl5YpyxJTrd2XZ3LC7P0NZh8hnmfOabTK9DL4FWA03Fm6X/5UccJ1lqCBCTxkn1i6Ri6fYU0UDLQDHS1yzSN/0o8DnRVJqfLhJavk3fMWq/eRnBvIbHmusVa2PHyP68zsQZ+FTy5bK7cvXqGbC/EOWPjHJibUuEUjpr++mvUCkzcGx8ake3REJ2+0Dw0aoTYuA+Oj+jp1jJm15W81lbhXIO7nGkMWDS9Dglyv5ogKCZb40HBJDo+QxHC8Rup9EBUSIpHBUwfq6xANwPfTKTkzYOijJwfm3eK6DI9PXc/2oSGdhYtICK4jSspw4PvHzDWGs2Tqup3+68hPXAt8HB0SqmN/4s2ByGJCWJi+Rpivh5o1FNcW3xdurllEULC+4pw7jETbvOuZh7UkypYoevDqm7WhE/rJEM8C++bzL2+TP5YflxZzr88WZDD+26qN8g/zl7zm9cSzBWfWmx9/QO8hWw6s68w99J9rNsvalHSZ4wPPkW0wCuzLe7fLLqMHbHHHsjXy6RXrJCvK/6clwSH727Kj8p97XrSelbwpPdO8j+vlpoJ5rjPu47GaCvn2wd3aDNoG2NM2p2fJUzfc6jrjWzhCqMPo+/WJI/Jf5gHtHKE3cZpEY9R+1IjLz5hFZqb1UBTqZwPj8b0LlpoNeJN6w8m5QaHuH0CQwZiEkNaPJ0+rGEfdGSI5iJzW9feaj3ukqq9bI989IyP6Pe4C4q4gNk4WJiRrKunypFRZmJgkqUbETwv2YPPcBqLB+kZg2x43B8Q2RHfr0KBmDu1va5FjXe16TavMtYR4t5m5gBFA8eb5TY2IlIyoaMmJipWiuHjtOFwUl6BNT+FwgZMZay6ij0FG7OBjJ11F20L9vi1v1sZjThbqeP/xLE13MPcXUNb2ye1b5bmG2Rv1eGduMwL9I4tXyvq0zKmTrwEcYB978Rl5ytxHtnoqQVD84pKrVQy5I4XZ6VCoz46hiXHZZ/aAqx7+o9r9NsVdvtmr/2P1Jnn/gmWuM+6DQv1sHCHUX2yql7uOHpAHKk8yHfIM3pRfIh82GwY6jM50a6VQ/3tQPoCZkx9YuNx1hrwRFOq+DwQ6IuKnerrleHeHEeVdcrKrU06YjzuHh2XEiD2UG2l01Qh5fD8+xtbgztUYaxpEHMRc8Fwj6lwfo9Zuc0aWXJqZZ57Z1FetEw10IDD3t7fI1voaTVtHbW7/+KiK9ukIOZwxtq/gtNiD8MYB0ReE64dXc/1izbON2dP5MXFSbAQ8riVqedHsCI4Zp2BbqP/3uos04oT3wqnAyQIHC5xj/tTr5iv7tsv/nihV59RsQYbIXRdtkZsL57/hhB04wZ6srZJP7XhWa8ttgKvykSWr1E6B4zLQoFCfHVjt4XC/+ckHtXQJ2XG2iDJi9yvrLpQ7lq91++pBoX42XhfqMCy+f3iP/PzYIWuLnT+AtMMvrtmsqdrnM7OTQv3vwXuKqMd3N1+mUTvyxlCo+x5Iy0Rjzn2tzWazbpOjXe3SMjggfWNj2hRmaGJM09phaOL6Os01iohsXOhUunVuTKysTU2Xy7LyZHVyukSar/mPxJgZuK6o/d/aUGOubYu5xr1a7989MqJfc4KTG0IVYgfRQBwxZs2NMkemec7nxyca0Z6q9b+IwE+n2nsD20I9z9ynsSFG2Dn45kyPiNL972NLV6lDzNfB/Y5I9luMKHnZCDtkZs4GXLrLs/Ply2sv0FrfN8o8wL+P0qC3PvlnIywbZv3vTwOB/tlVG+QdxQtdZwIHCvXZgzKnL+55Se45ddza+gbgmP3Cqo2a/h4bGuo66x4o1M8m6EsG18deAU2G7qssk31tzRoFIFOgJv3movlq3JxP6icM8OahAfld2VH9mMApNKFRu+yoWFmUmBywBv9MgDGCjrq/MfeRLVDGsTEtS1YbAQZDntgBIvyl5nr51YlS3aSfrq+SncaAPNzRJlXmGiLNHXXKfWOjRthN1Sc7kVGzXuF3RDp3/UCfpuPD4YC9AoYxHG5w9gRCSjxKFWB4QVT++mSpPFB1Up5vqNOGfo2D/fo+wdntlCuJCD5+HziHMWoKvzvKKKbKKrrlWFeHNv7aY/b7BnM+xhh85+OIni0PGJsD5R62nNgQjLhfnXxg/yuMi5fLMvPU6PZ1Bsy1e7ahVv5UcdzcZ8Ous+cP3pN/NqJuU0aWZoa8EVh/4IzCvV3R061rqw3QBwQZKSgJwvMRSKDh6LbGOl33bbEhLVM2GZF2LtfUHxifPK29GnY2N+r+YAvsMcuTU2VVcprEhbn3vUTjUzQ2he1pA5TR5UbHalmLL+J1tyrS3o93tcsoR1IoSElDgyV4vufFJfrFhuoUsNDU9/fJIzWnNCXIAVUfhFgD9eQvtzTJ/xw/JPdXntSohNYpGwHvVFH+RkBIQeA9VVctd584og1Hf37soI4yajJC1V/B2oQsCAiRnx49ID8xf/f/nDgsz9TXqPGCCLovgWgjGh1BpP+5qtzco4flwaoynSRAyEzBatY3NiL3V5zU8p3Z7uUw5AuMOIagSwqbmePoqpwCKYiNf8MI/LnSb9ZrTNVA7T0hMwXNkqEd3JGx1D0ybDVKT84Nrwl1LKtI29vRXC+1/XZmX/oDiPguTUyV9amZWk9G7AKv924jZsp6OmWEmQbEj8DGjLR2f91IEbWEY/fO0gPy/w7ulvuMkQ5jFqLVvdX0ngUNgY53dcifq8vlR0f2ybcPvmwEe40aSb7qcHkl6E6P68YsOnI+jJh7p6avV55rrNESntmCchsI7pzoWK3lnwko51iYkKTTEWyBhpC7Wxs184mQmQChXhyX4BahDidSz5idxonk3PGaUEfzItQVnejqlL5Re+kZvgyi6TFmw3hnySLJiopmNN0NwNCFWEfqY58x/AnxF1CHhdpuvPozEOyo00Yd3n/t2a7Rpx6zh/i66IOzAYbQkY42+d7hPeZve0kerj6l5/yRwph4OqPJeYFUftSvopxntqV9SGFH+cUtRQtUsM+UcCOI1qdmaJmiLZB9gnWNQSwyU6bKO6NVqNtWEGg2y1Jaz+M1oY4L/kRtpbSZBZdMgQcrPzZe3lI4T+cNE/eAlDnU8NoaqUKIU8Cs67QAadAHhxvKWLQxmNlLEHH2ZTD7/Mm6Svnwtie1JwREiD+DdGEKdXI+oIQNznYb5WuYRoCa8AvSsyTiPJ2cG83/ixGTtkBAAT0UttZXu84Qcu5gAkdEUIi+2gQlyszy8DxeEeqIfCDtHWmMthpw+APpxsB+V8kibZYUCI2SvAU8gtjokTbL+4/4E2jOF0jjzNC4DM2cPrdrm9au2xjR5A0QQfvuoT36d6DhGgwif08Kz4mO8UojOeLbdA4PaWNJHDaeEYwORPPe4FlEILPNvbwoIVkzIW2BKUgQ6iMBsBYQ+6DRoe3pDrgXbY58I+eGV4R67+iIPNcwlbaETqRkKm11QUKS3JBXPOMaKTIzsOmh8dZzDTV+3ZCKBB4Q6YESUZ8GYr3GiHV0RUckGpEoXwGRMzgMf1y6T/735BF1NEzV3Ps3GMuYEhGpEyAImQnoCL29ucFKx36UF8JhdGV2/qzShEPnBhmhniQrktNcZ2YPSl7Kuqe6X7PZMpkpaEqNenWbIBN6zBzEs3hFqCNFEWnvg+Nj9BS6wLzgSzNz9dVW91Dy+mCzx+ggf2nQRAgaGqUFYDoxUmBhwN9XcUL+WH5MGiyO93EnRzrbzO97XO49dUJHEwXCWoTdDc2O4kPD2IeFzAg42JFxstPs3TZAieGSxBRZEJ/kOnP+INCyPi3TmjjCWoAxWw9Vl6vzjpCZgPvQ9vqKbFTWqHsejwt1XOSWoUFdaJFGQabmSi81m8WVOQU0XDwIZp8igsVadeIvxIaEGuMzMOt+YdiiW/ofTx3XEWCYIetk4YvI//2VZTobHXPuAwazx6HxVqDNiCazB7P3D3e0Wnte4DDCnG1EH2dLZmS0LEtK0XnNttDGmfXVmvmHzCFCzhXcL7b3PzS8pkLxPB4X6mjtj8gHullOMIVCQX3TutQMq81IyBsDLzU2fYx5IcQfiA0NC+i6X/Q/OdndKT8u3a8ZM0gfdZpUx++DSSf3VpzQDACktwYSMPRK4oxQDwmbOkHIOYDnZk9Lk+xvb7ES1UPEEXXla43tZQN020ZTugszc1xnZg+CWZW9PfKy+bsZUCAzYcDsfbadO2h4zXIlz+Nxod7Y3y+7LKUt+QOIoF+QkS2XZOXSU+UFDne0SXWfbzagIuSVIEqZFB4e0GsJjJPKnm751PatUtbTaT53VuYWRpNub67XyRPIAAg0cG9i7nQcI+pkBowZ0fpya6OOL7QBJg4sSUzWqLotsqNi5PKsPKuZkVi/Hqg8KS1+PgWC2AU9HFBTbhM4o2zXvZM3xuPvePPQgOxrb3F9RtAlFKlXMFyI54GhjIh6INSGEv8nMjhY4kPDteNrIAPjFjXfd584rK9OYar0a0C+fXC3+b0Cz0GIaSbh5t4sjI2XqBAKdXLuHO5s02wZW5HlDWlZsiwp1apTE808kf5eZO5vW4IGawaaL1f1TTWaJOSNgDMY/Rxs27Wh5p5ms2vP41GhjjQe1No4yXDyNlflFMqq5DTtGko8T//YqI5BqfeR5lOEvB6oIMN4x8yoGNcZuyD1DcYoRkniyIiM1ohUiTnyYmL1c6Teezs9DuYJIut/rizTFPj24aGpL3iZjpEhdR5gtBSaqXoSXJOc6Fgts7omt1BuKZwv75q3WN67YKn808Jl8o/meM/8JfKOkkVyS9F8uS6vSC7OzJHVKel6fRPNdZ+t+Agz+9y8uERzj4awaSqZEc/W11hruIj7eF1ahiyyXG6ISDp6hNxYUKKTfGyAvxZ2Crq/s0yPvBEo/2o1+x2cOtaFutlDmPrueeacRrtcD4FFBkbKNw7s0i69gQxMlHRj1H5706VydU6B1pbaBGkvBzpa5JpH/mRljIk/c11esXxsySqdpUrORr35jbWy5eF7XGdmT5y51z+5bK3cvniFjmkidnmpqV4+//I2fT0XEOWMMJsvUkHRBTnRHLhGsaGhui5B+ENYQWRBqMOjPj2fFVoLTkb8DNwrMBLwCqfskBGi3aMj0mGMBkxXQF+SenOgmagnuT6/SD6xdI2OYPImWIf3tTXLh154Usq6kZLvvh4tEAzoql4Sn2iEMZwocTq2LyE0XFPOI3E9XdcxyIiWafmt188ck6cnZXQCx7iMTE4Yo29Cax4RzcT1bDXXEKm4cHBijn3XyPA5/T24r67PL5bvbLxUHT3e4l3PPCxP1lXp3xIoYAwZHDNfWXuhprD6ChAbWEfe9+yj8mxDrYrW2YKo91fXX2Rsr0Lr78WAWffwnL/b3GP1Zt2zZetuTs+SL6zepE42f+Xx2kr58t7tsqul0XVm9tyxbI18esU6yXKT89ppYO890N4it219xHpQ9Nbihfp+IgvYnTxWU6FZZ88b29MGcJrh+XnqhltdZ3wLjwr1F5rq5KdHD8h9FSddZwIXRBMQufj0ivU6f9M2FOrnzlKzaX9g4Qr5kBGO5Gwo1H0PNFv65v5d8qeKE64zU8A5GKIR8TBJCpsS5CrMzceoa4eQS3adh0CfFutnCvW5xqg9lzgoNhXcOxBwKtQH+6Wur1eq+3q0bhwN1Cp6u6R31P2d2fE3fmzpavN8r/Tq6DpMmPht2VE1RCGI3UGMuVZoaLUoMUkj1/OMUC+JN0I9Ok4zHWYbEYcRiGvaZoQ6ytga+iHU+1SwYyQeMuaajYDH119NuKdGRMknl6+R2xet0Ai9t7At1PGsOD0lNDMqWt5SOF8+v3KDTwl1zBDHHvTJ7Vut9XT4hFkPPmj2HzSTsw3WMzi0bn36IdnV3KjTJ2wAx9t/rNks71uwVLOa/BEK9dmDBqoPV5+Sz+16Xp3jNkHm1SeXr3OLZjkTCvWz8ahQ/335MfnB4b3q7QlkINKx0P7y0mvkgvRs69F0QKF+7sCAvW3eEvn6houZjvkKKNR9D0Rrf37skPy/Q7s1agohnmiEOAw93Ou5MbFSEBOvgg61woi0YT3yxGhI1M1hxBJqLp9vqJGjxvBGRLbTCCZ3iVdwbW6hfNwY51d7KRqFCSfP1NfIF15+QaNttsEzhX4nixNT5MKMbM0egEj3xDUFnUa847472tkux7raVVBBrKPkANcWUUZcX9x7d110labUR1lKDT4fbAt1RDlR+oHMEqeCbAp0OL8hv9hn9jmsCBC9n9+1Te6vPKn31GzA9UEfj19fdp1cYZ4RPDfuAE6q75n192dmHYaDzhawUz62dJWWr/gjFOqzB47UHx7ZJ3eVHtB+KLbAioHA4mfMe5niZoc3hfrZeEyow8sIw/H/mTcfm3ogg6jHRcZQ+akxWBDFcgcU6jMDNZkwIN21cfsqFOq+ByKbD1aVy1f37dAuxJuNcNucni0rklJVTDgl8gfP/4tNdRr5f6auWtOpIeTdAUZgvnf+UvnPNZu90rUWxhOi6ehEj9RyW0CII+thk7m+7y5ZrOU7KGHwJtjrcW1Rh4/ru62xTk4Y4Y59HzXyj17/VsmMiPJqVNe2UH/w6pvl+rwin4pU+wLYf5CFc5WxYxAdxOezAWU6y5JT5P8uu96tDXzxDGD068dfekZry21lDS1JTFGh/oGFyz3mhPMkFOqzBxlNt297Qp5vqLWWzQHQSO5Lay/U99LdeyiF+tl4bFfBDYMbCAZLoJNsDKmPL1ntlkg6OT9wX2K+PyG+DqLj1+QUygNX36Qb0zc3XCI3FZRIUVy8o9Jzo0JC5MqcfPnGhovlW5sukSVJKW4zPhHFRyZXeU+n64xnQYQZo6Vsi3Q4vT63coP8+IIr5a1F890e6TgX8HthTOD6tEz55PK1cu+WN8sft9yoKe9rUtMlJzKagpacE12jw2qsI5I+W5EOMA0DTRSRYeRO8AwsTUqVBQlJEh9mz8472d0hh9pbpXeMM9XJ34O4K5qUvtzSaL1ZaZyxK9DfxBuO7kDHY+94VW+3CnWPhO8dDFJP16dmaMdRpKUSZ9A5PKybICG+zlR37xhZbgxFpLtr0zCzuTotAoPfBs3MUEOOpk4/uuAKublwnluyWmDAoJnptoY61xnPgtFKxzrtrS+4lgUxcfK19RfLu0oWa8YArrFTrjB+D6RXI4KJxnVLE1Pkg4tWypfWbHZ0ejhxFu1DQ5odhN4IswX3I/oioJkhRli6G/x7m9OypCjW3px2OCtQYrKj2V7EmfgPPaOjcqijVXu/2C4lS4uIknjz/BDP4zGhju6XgdRh9bXIjY7VGjE0aHKa4RzIoKuszVoyQrwF1hVEzpHu5QuiKMiIdWQBrEpJk8+sWC83GbGOMW+2QaMzRLVtpaGeK0jnr+3rVbFui/yYWHlr0QK5saBYMqKiHR3lwB2ISCa6vKP7PCHnArq7Y2767hZkosw+mg4HILI8cqI8V/6zIT1TiuPirdl6WLnKerrkhca6gA96kb+ndWhAy8jcMVEEzSjR74Z4Ho/t7o0DfTpDNpBButXK5DStF3U32BcQrcLmhKiapw5E83wxYtJrhHp1b4/rM0KIp8HagSZJ71+wVBui2e4Kjmcc0Sh0KbeRRnuutAwOSr35NxHlsAHepxVmH3lb8QJ1aLABJvFHUK6yq6VBGxLacK6h5BBNFsODgzyWeaITGBKSrY4ihBg72N6itfse7AVNHA6yTqrMPYERhpNucOMUxyWwp5CX8JhQx6KL7q+BzPz4JO12C8+Uu0GUKiU8Um4tWqhj4Dxx3FQ4X+tgfdFshPceWR+IfnHrI8R7wJH5ViNCV6eka+q0LRBlaDV7EGrV3RFxeC1qjPHUNDhgLZKPNPd1qZla2kCIP4JnBTOgn2+0U6qCjBNMRbjQ2F8IYHgKONWWmecU0xhsAUE2VcZT69ZJGcS3wAjU3a1N2ofFtgMHz8zC+ETJMnsP8TweWbGw6Dabm6h7JHAbYCD1D4YnOjB7AmxMBbFx8u1Nl8oPLrjCI8cdy9fKokT7c0k9ATY/lGZ0DA97PDWWEPI3kCZ6bW6RvKmgRGvtbTIwNqrj0dzVXf7VwIgcm01UF5s1Fk3ZWDpF/BVkvyDtHY3TbIDSGnR5R1TQ08/N4oRkWZGUYrWBIqLqmFowPDHOwAJR+3W/2deeqK10i/MGz09BbLz1LDdybnhEqA+ZxQRdO22OCvA1liamyqa0LK1R90ewNDxWc0oOm43VV4XuiLlPK3u6PJoWG4jg7sBmgvcZkc1AORj9OHcw6/iK7DytV7dpVqMTLiLqoxaaU50r2Pu6R+0J9Tyzh5QYwUGIv1La2S57WptUiNog34iMjcb+8oZrCwETRNVTw+1NZOgaHZGdLQ2aqTrmwbWMOBOUQTxbX6OjAN3BiuRUbfpK57B38Mgc9areHvnoi0/JM/XVrjOBx+dXbZT3LliqnXr9jdPmv6bBQfnQtifkuYYa9e75IoVmM0cX5WtyCzUDgrhnjjoiC3iv0RArLCgw3mdkuFyVUyi3L1ruOkPeCES9n6itks/sfE5ry22AkqCMqCjZcdO7JdsIXk+YHV/bv1PuPnFYKnpm30wO9ej/tfYCbbrnpFF7vgbnqDubHx3ZJ98/vNdag1eU5n3D7O25Zs/xBhDV3z+8T/506rjrzOxBlPOzKzfI+4xdmeqAsYw24Bz1mYNA6PcO7ZFfHDukgt0dfMHol/ctXCZFxm7zBJyjfjYe2VWQpjM0bscz6ousSk7TkWyZbuhk7ATGJ0/Lg1UntabMk5Eq2+B3rx/okwkLHWbJazNhxD/qdnc2N8q2xrqAOF5sqjdCjXP6ZwLq0+fFJ8p1RgDZYtI82z0jI1rj6ak9aWB8TIYt/VuoeYXREUKRTvwU7A2lnW3agNgG6OmwKCHJakO3mZIfEy8XZGS5PrMDsoMeqi7X3k9sKheYIEvvtyePyl+qT5nnpd911h5wZMMhvNHcu/7iDPJFPCLUW4YG1esTiCBV5IaCYq3d9se56Rib0jY8KA+bhcLX5+QjgofFjinK7gXvLrIuUAqDWsRAOQJ1DZwNaAB1eVaexIbaGWeJew9rFiIPQ8bQ9QQQ6aOT9px/mKrBBETir+xpbZbjXR0ybMnpj67rSD33ZgZKUni4LE5I0UwyW+nDKKc62tkmx8x71RvAZaWBCuzVR43d/cdTx+VYZ7tb+q4g43GFeXaKYxPUQUy8g0eEOmr0bEUUfAmku6IL+qWZeV715rqT/tEx7cxa2tGmjZp8GWx8yP6gUCfEGUSHhGo9NoxtWx3g0UMDY2wGPbQnYV2x1fcCxhicXMz6If4IatK3N9fLKQtlIgDdqpclpchSLze5xdqFxpgXZeaoXWgDrGMY+fhiU51boqnEmcA67R4ZlqfrquWnxw5qc1R39f+KCQ2VtxTO0/p0jgH1Hh4R6p3mphpxg7fH6USFhMiN+SXaTAQpi/4GBC1GQvyurFQ3DF+XtzCmUbPIru+EOAOYBrGhYXJhRo7OP7aBCvVeCHXPRNRtAtGP39tWtJEQp4BeN0h7P9jeqpMSbJASEalOvhwHNPFNMmLn6pwC7X9jU/K80Fin7xub4Po/sLnbzLOB2u3vHNwtWxtqpGfUPdO04FDCKOk3G6EOwU68h0eEOmZUjweYUEdTmdSIKLlt/hJJCotwnfUv4MU71tUuzzXUWuvO6k2wCGKEIOu9CHEO6AC/IT3TmrMTj3f9QK/H1qxQsxfYbDKGmvdAnqBC/JNJ81xura+RpsF+a87ydWkZ2gDLCU3+4kPDZFN6tvYqstlj4nBHq5zo7nSbYCPOANlULYMDWo/+pb3bVay7sycUouhowFYSl2gtm42cHx5ZvZCm4ctNxs4HNF5A9/DCmHi/7c6L5nH3VZz0G08u/g7MO2ZEnRDnEBEcog05ba2jiNx1DA15bE+CSLCZNthqjDWmuhJ/A/vuE3VV2uvGFhiJi/nPTgC16ei1cbWxC9Gx3Rbj5n1Dl3TUqhP/ZW9rs/z77hfk319+QUo72l1n3QPu1fnxSfJPC5ezH4oD8IhQH5wY18UkUIBRVmAE+jtLFlmrR3IaiOgc6WyTbZbGJzgB1H12j47IpM8n8RPiP0DoIoU1ITTcSmQMTzccckgj9wRIdbXZSLSyr1tO0CgnfgSyW452tmsTOWRgzhY0XETkenlyqqRFOqdbNbKCMMXCplAHe1ubNLuRlot/gefiQFuLCvR/3fmcRtPbh4fc3qMEzeMuz86TBUasE+/jERWJ7rqBVD+DeY2b0rP0JrfV4dNpYFNFbRT6D/gL8OgPm3sVKXiEEGeAFRSpd6iXi7CQ/o7Slq5Rzwn1uNBwbYpni/LuLtnf1qx9QQjxB/rMvfx4bYWxJyBCZr8BBxu7C30t0MDNSWm7CNysTE6TeXEJEmNxTWgY6FebrLav13WG+CrQSrX9vTpJ6av7dsoXjEj/Xdkx2WcEO3ooubvZcXhQkKxPy5Dr84rVyUy8j0eE+ujEZMCkE0OYYxTbldn5fnuTo0Zyb1uT7Gxu8Kt6bvwlWARxrwbG3UqIbwCxnhsTK5Ehsx8Rg2e7fwwN2cbdbvQA1PqhIZ4tYKztbm2S5xtrXGcI8V2w33YYgf5wTYUMjtnpGxE0Z65clVsgKeHOmv0M+xDR9HWpmVYnAU1nJOxvb3adIb4CdiBM8oCTZVtjnfz6ZKn88PA++XHpfvnVicPyeG2ljhP1VE+V5UmpcoXRLwsTGE13Ch4R6kjTCBTpgwZya1LSZZU5/JXyni6ddYrFw9/AXar3qx85IAjxdZCYlBMVI5GWGsohaoG59p7I9EK/kgSLQh3OBdSj/qH8uK7BHNVGfBk4/pElcrCtRQXLbEF5DNLd16VmSLzlFHNbYExbXkycpujboqy709hlTW6Zp03sMW7WazT+Q9T8SMdU+eiDVWXyf2Wl8qMj++Rr+3cakb5Pnqqr0kwJT5IRGS035JdoNorNci0yOzwi1JFiGAjpxFhy15vNYXNGtjYN8Udg2G6tr9bUS3/NkoCxwDp1QpzEHEkOj7TamHPMPOeeELkohUo2Yt2eST4VVX+xqV5+V35MWocG1fgjxBdBY0REEuE4sxHQQUo5bDBErJ3aI2hNarqUxCdIlMWsS4zKhfBrYqNJj4O7Fg5UaB1EvnUyx+io9kJpM+szrgmEeUVvt16jZ+tr5Pdm7f72wZflju1b5b3PPir/sftFub/ypFSa77HhsJoJ2JvQP+HavEI9MFKaOAePrGIQd4GQ+h4yN0g3CHhy/ZVms+i81NygUXV/ZSqi7vqEEOIIkPZuc8zSxCTKXFyfuJHCuHjJNmLddr+SxoE++daBXfJgVbkKd0J8kTojYJ6sq3J9NnuQWn5jfomjSw/Ra2NlcqrMi090nZk9sLFr+nrlGSMCiWeBxukZGdF7ubSzXctCH6+rlP87eVTnnf/rruflfc8+Jlc9fI+su///5OYnH5TP79omvyk7KofaWz0uzF8J9tVFiUnyoUUrZVliiusscQpzTnsgx/dNj98vLzXVW+nm6WRuLCiRTyxdo7MH/bWJ3PcO75H/OX5Y06z8ETR92nnzbVJkjOvgOc70xnsSbEDPNdbKFrPBkPMHaWS3L1ohP7zgCtcZMhNghP6luly+tGe7HOpodZ2dHb++7Dpds+MspqW/Gthif3bsoHzbGGyIltgE+0xGZJR8avk6eUvhPE2nJW/Mu555WMWhLQfHg1ffLNfnFVl1JAUCaEb7h/Jj8i87nrWW9o7Sw79cc4skhYc72g472N5i7Km9RsyVus7MnsSwcNmSUyC/v/JNVjN4PAXqsb+8d7uOm7NFSVyCZi8gYjwbECkfm5jU0gKM9oRwGhgb02wm7E84pnsc4RUBHziDx8wr7KjpY8z8/06KAyHAWBgbJz+5cIsGGaNDQ71+7zxWU6H7JWbF2yAyOER12VM33Oo641t4ZFdB+tFc/9StCv40eG+vzimUBfGJfinSsfC0DA2qcdMw0Oc6659AVM31yW2OEP8lKjjUqhCaNrDcDepQETlbkZzqOmMP/P6NgwPy82MH5ev7d8mjxsBhN3jiK5S76qptRRRTwiNkVUqaJDpcpIMiIyDRsMumo7B3bFRH3B3paFUxSURTzl9qapBnG2pmdbzYWC87mhtkd0uT7Gtvkf1tLXK0a2qk4ElzHyPLFI5Y9A1BZB0lHS1DA9I5PGTW5BEZHB9Tke8kkQ5bd0Vyinxx7WYtx4gKCaHl60A8ItTRgXOOH19+GI8b07LUEMMG4Y+g5uax2gqNpA+OjbnO+h+4S/V+9UNnCyG+jDrQLD6X0Oge0OkKRnWuTclwy6goROxhKD5UXS4/PrJf7jq6X7vCQ/w4ySgk5Exw30LkQKjbAv0gLkjPNnu48/dv1NLPj0/UKUG2QMQW4vCx2kq12chUzyEI5e6R2R19Y6P6nqKXApwgEN2ecPS6i8jgYNmQlikfXLxSrskt1L5a/hhk9Ac8ItRDgxBR988bAH8XFty3Fi+Q3OhYFXn+BiJPLYMD8vuyY9I1POy3xh/uUGzwuKZcrghxFkFzffe5TIuMkuXJqbIgwV5N6itpNmv0M/XVcmfpAfnp0QPyx1PH5UBbszEyh33aoCT+SdvwkBzv7pDKXjvTY5C5idKP9UZ8+ArItLH9+yKjBjO4IS753JNXIzokRIOL/zB/qbylcL7Eh4abvZVWr1PxSI367due0JQ8dD/0N1D7gEj6b6+4QUcb+IInd6agjuxpYwD+03OP/bU2xx/BtcN4vV1vuU2vJXFPjTqcWRlRUZJm3utQi6nMTiYkKEjenF8in1y+1nXGd8HzDwNwAjV3Wn83VY+Hczjw9anvmZS5mk015dAMNgfq4WBQ45hJ1gp+7s6WBvnU9mc1WmyDX15yjdxUMM9jWVDo+IsZud/cv8vtdYp4v1GvekN+sZZkLU5M1pFVMMhYR80adScAp9IPDu+VR4xtaAN0eX/fgmXy1fUX+Yzk6B8bkweqyuQjLzyp9c42wN+O7KOHr71FNhgxBlHmK7ijRp38DdwbCWa/W52SLh9YuFz3hhgHTqhijfrZeESoo1EIxg6gZsOfwE0PDy6M73+Yv0RvBn8DNweannxl3w59ePzZQ4vNrSQuUR6//q0qIol7hDpq8j65bK3cvniFNsIizkTFuB5/E+Hoko57YnBiTLvcImqDmbDdo8N/TQnE1/H/wfBEzRscYGjkEx8WJikRkZIaHqWNnjBqbTqDBc4bvE59PEdF/JnGtj8IdbwvBzta5danHtK6SXzuCfC+I2qHv3VLTr46I5GCH6wZCr4iaexCoe5d8Dx/48Auufv4YXVg2eDSrFz56JJVGiH0JbY318undzxnVZxiDYVdii7eaIzrK1Couw/srVFGo7y5oEQ+Ze6NJYkpjl2vKNTPxiNC/Ut7XtJ5rzV9dlKcnAKE3eb0bPnNFddLUliEPgj+BpqT/KX6lHzsxaf8ujYdTGdH3LvlzSooCIV6oIJ5sE2D/VLe3SVlPZ1S2dOttY9oJAmHK8Q5vgebB4xu/c988rfNZOrzqSVxSg5CfKsQx+fmRGJ4hBHtkZIdHaPGJLrzonyoMDZexSTW12n8QaiDtuFBuefUCfmi2RPRZMgT4D1HBgManqab9/WK7Hx5S9F8WZmc5vaO906FQt27ILvyoy8+LQ9Ulqkj0AYfXrxSPrNivc/NgEYDsv89cUT+e9+OM9bP2YH1dklSitx50Rat2fcVKNTdAxw3uTGxcoexuzAdBPsr9gSnQqF+Nh65UlEhdrv1OgUYlGjCkOinIh0c7WyXp+oqZcjPRTrAYgbDlY3kSCCBpjj1RoCjvOUnpfvlwy88JTc98YC8/amH5JPbt+ocWDha0aAIIhkRMNRDtxuRA6HTNTL818g6mvZMHaPafAev+Fyj7ub7IE4hVluNoV7R0yV725rlCfNzf3XcGKp7d8onXnpG3mr+3Rsfv1/es/UR+beXt8kvjh/Srrt1/X1enzc7WxJCwzWiscWI5aTwCNdZ9wInB943XCNcu3srTur7/P7nHpOv798pLzTW6dcI8RQvNNVr4MaWSM+Iipb5CYmSaV59DfSvuCQrV8WELTsSgv+UWV+PdLT5ZckpOXeyo2LknfMWyQ8uuELeVrRA0iOjHS3Syd/jkauFWrkwN3S79SaITiB15KqcQhV4/gjqp5D2jhn4tjy9TgbOJBjP/up0IQTgWR4cHzfPdqvO8EXG02d3Pi/f2L9L530/UHlS60cR1TjS2aYRH0TXIcqxJkxH0mcLfg5G1qAHBhwFiNwfNobly+bfhTB/uOaU/L78uNxVekBHj/306EEde+PLYI1B/wvM1F+VnKalAZ4E7zkyI2DAP1VXLf9rrv/XjFj/990v6PsLR0zf6GhArPfEO+Dees7leLPFUmOLzYtLPCsLx1eICAqW/Jg4WZ2aNutZ32cyZNZ4rKVVfXZKC4hvgaxQOIU/s3KdfHzJark0M1f7OPirXvFnPCLUccOEG2HrTxTExGvXxGIfqv+ZKce72uXl1ka/6y3wWsDLiJQgLmTEH8FoGYzx+nNVmfy4dJ/86Mg+ubN0v/zi2CHtEA5xDAGHaLe3R3tBUCLKi6jbgfYW/d22NdaqqPd1sL5szsiSd5YsUrHuLXHRPzaq4zafqquSX588Ince3S8/PLJXXx+uLtfRWfgeQmyB5pNwtuGZ7hixU3YAxzqaYxXHJbjO+Bb4/dFH4trcIuuN32C/nTDPONZT4v/AhkV/JfRruH3Rcu3Z8I7iRbI2NcPcW85rGkfODY8I9TQj1OE19BfQuRg3Powtf61Jg6H+YlO97Glt1tTJQAANlpA6R6FO/AmkpmsJS22V/OrEYU13/uLuF/Xjl1ubNIU9UJ5xp4C15ubCeXJr8UKNBnozEogrj0wJOGl+V3ZMvrJ3h3zjwMtyt7k/Hq2tkP1GVKHUgcY+mS0j4xNaaoFeF2g8aYOEsHBZkpisM9R9lajgULkqp0Az+mzaHxU93XKss4Pp734OyiaQlYGeWbcWL5A7lq2RTy9fJ5dn57Pfkh/gEZWJKCVSxf0FNMBan5ahqe/+Sk1/r3pjUUcaKKALdU50jNko/dP5QgIHNHeDsw3RcTQD/NbBXfLP25+RbxoBBufbsJcj5kQkNjRM3l6yUD64eIWm7TqlbhCZFzubG7Q3wYe3PaV9AjC1BRlWuJ9QrkDHDjkfcG89Un1KJ0bYYnlyqhQYkRLpwzYmHHXLk9N06gx6OtkCzrXSzjY53NHqOkP8AbhysF+gpxL0yJrUdHnfgqXy7U2XyvcvuELelF8i8WGYjU78Ac8I9chICffB2qHX4urcQlmbkuEYw8odPFRVplG4QDLIEOWCVz5oLpc34ttApB8zwupTO7bKR194SiOl9RZrQokd0Ij0bUUL5b/XXSgFsfGO64+BbIyn66rlju1b5dpH71XRjkZgTIknMwWN4zpHhmRrQ41Ok7HFldn5khXtu9H0afDkX5GTL5mRdhviQaijHwnxHxBUQgT9PfOXyC8uuUbuufJG+cLqjbI6OY3i3A/xiNJE2jvSL2L8oEYi1fwdl2TmSkm8b9ZDvREQ5o2DAxqFq+3z7cZNMwVebYywYESd+CoYp1fa2S7/tXe7zut+tKZCU9sx15wxUOcBowp1qRdn5crdl1wr1+cVO25kGvYE3FctQ4M6TuvjLz4tt219RO4sPaDz4G117ib+DdahbQ11WmZhIwAApxZSfjekZUpKuH+k916SmaMNv2yCHkNw2jYESK8hfwVO3QszcuSzKzfIH40w/8u1t8jnzMcXmXsmOQIlE3M5schP8cgcdYC5sb8tK7Xa6dMboIP9BeZhyfLgGBCUDSAl6v0Ll7ndWzY0MS6/OnFEfnB4r1T3dgeMcQ+Rvik9Wx6+9i3ag4DL3RSco+47YPTZsw21cl/lSe3YjkZs5LXxxhz11wLr7Mj4uBzubJOHq0/Jn6vK5WR3hyPrwiGQ0JgIY38KY+NUKF2alSeLEpMl3mFOhteCc9Q9DyZIwA58uOqUNpWbLbCL1qdmaESxKDbeL0QKSgM+veNZHaFo694EqF3+9Ip12gXcyXCO+hRw3iKzoiguwdj+Ceb+TtD+SRjlB0cOAoZOc+jahHPUz8ZjQv3nxw7qPNxDPp6Cg/RoiDpPNhyLMQ8kbrJfX3adWzcjiLKGwX75p+cel71tTTIQALPTp0ETl2tzC+V/Lr3WdYYACnXfoKavV8eZPVhZprPJMbucvD5OEupngk7seOaerK1y/NQNiHbUB6NOGJ230WR1WWKKGpROhkLdswxPjMsz9TXywW1PSNPAgNjI70k2e/a/rlwv71uwTD/2F355/LD87OgBXcdtkR0dI7cWLZRvbbzEceU1ZxJIQj14zlwdzwnbEweCgLiPkyIitHM7xnhCnKMcE6I9NjQ0YNYXCvWz8dhVz46ONTeh76cnjU5OSN/YqHQbQ9hTR8/osP6b7vaooG5se3O9Nh4ZDCCRDtDYKT82zvUZIb4BIlMoUbm34oT84thBHWFGke7bzItPlHeULJKPLsVonYUasUbZmBMNbKQwV/R2a0r8j4/s15F/vy8/pvtIt9m3UHJBCKYGHDJ2BZxONkQ6AiXo9o76dNsjzbzN2tR0XQNsPu/o+n6wvUWaBvsDqu+QJ8H1QhAP2UYQ3XBWwkGCbI/Ficna8O2ijBzZklMgNxaUaCPRf5i/RP5x4TL50OIV8vGlq+VTy9dpOvunlq/V5nCYBICJBnAm0wkYuHgsoo7GZN86+LL8wWziZGbAk4balPuvusltxhoMKlwjNAuCF8vW6BRfYWVymnxi2Wp5V8li1xkCGFF3LkiLbjaG1x/Kj8tPSvdL3UCfeGg59wucGlE/E0R8tzc36Cg9zDVvMoJnYGzU0QIY6e/r0zK1VAvrKsrEENFwEoyoe5at9TXy/w7t1oipDSCIIH7Q1wGNtfyJkckJudOs578+WWrVDoP4//LaC+TNZs3D++dE3BFRh2hGxNrGswnrG1mt+A+g7zA+hl2O+zDKrHMQ6jGhIX/9OD40XPcY9FFALTl+F/Tswu8V7kdjq23CiPrZeEyoo4EIHsAfHN7j9siwv+EJod4zOiKPG8Pl/c8+quIs0Lg8O0++su4iWZOS7jpDAIW6M0FUCs2B/nTqhDrX0OWdzAxfEOoA++WEeQ4fNsbLr08ckV2tjdI1PKzZFE6NjmGXgmF82/wl8oGFy1WwhwbN/auB620o1D0H9pBfHj8kX9j9gnSa+9YGSBuOMXYRmr86446yC+7LtqEhLRmwBda5a3IL5c4Lt2gGoRNxh1B/97zF2h0ddd2zBQ3bIMhDzIH7LgIfzw3ShtlwfrjLPg80KNTPxmNCHf/M9w7vVa8q0nDIueMJoY6FEQ3kMC830MB7ekvRfPmJ2cD8uUHH+UCh7kxaBgfkoepy+feXX9BuynR+zhxfEerTDI6PS9/oiDblerq+Wp4wRu3hjjbXV50HdirUYC5KSFZj+W3FC7T20glQqHuOk92d8uMj++TOowesOpawb0Ow+yPImJk8PWl1XUe5QE50jBErb9fRXk4cL+wOoT6VUr5W671ny19j6S4zfPrzqSg7sQWF+tl47EnFjYxuhVgoiLNAbTq6Db/YVOc6E1ig1g0NO5CmRIjTQXbSM0ao/fToQYr0ACIyOFhSzR6KmvUPLVopP77wSrnroi1a64gO7E4TLbgvca/CsYBRbl/fv8vRjgXiHtDzBveA7ewP/Dz0DPLHAyMPba/rEP9dIyPyXEOt9o8IFOCggFMCjaBne+DnwBmHtRYHfjYcRhTpxJ14dGdHY4XC2HjXZ8QpHDWb6PamemmzFF3wNeBpLYiJ10WXEKezo7le7q8s054S3hDp8E5jLV+elCoXZmRrOuWtxQu1KQ6iFxgD9LlVG+Q/1mySL669QL5kji+u3SxfWL1RuzT/y/J1+n0fXrxSbpu3WK7PL5YLzM/Bz8uNjtXmUHwWXx28K3AoFsTGyca0LHlL4Xz5xNI18uV1F8pHlqwUjGFyWobA0Pi4lPd0asM5ZG3BIYxzxP8ZnpiQIx1tcqK703WGeBOk0j9ac8paCQIhxP0Efcng+tgDzJHa/l5tjkPOHdS+5MXEqTFsezwb0ikfqj4lD1WVS9dIYC7ea1MzVWzQifT3IGpR3dcjvyk76joze9BABSJjdWq6drMm5w7GsP3WXIvHais0E8bdIFoQZa5RUVy8LDNCemN6llySlSuXmuPizFztYntBZrYR2ubViO0LjFDcZA5EfXGN0VRsXWqGju1am5KhPSDWmI+nRnmly4rkNPNzU/TAiK+l5nVpYqosSEjS2bEZUVESFRyqNfhonmfTMfGm/BJZaP4dzGP2RaauTYhmqaGxVnFcotbsIjsIDYuwU2AuM+rbvQ2uG9L2sZZ0mn0mLTJSf8cwLzVTgtMA3eptOQzebvZm2526/YHyni65r/Kk7Gtr9opTkZwNrkGXeQ6xfmOdcFr6+ylzv2xrrJP6gT7XmdmDvWiT2becWpdP/h6sGzuMTsR+YQP0EUAQAD1TfBGPPqVIfYfBR+PcOeCB2NvaZO2B8DUQuSswxm1JfILrDCHOBP0CUFf7gjFkWt3c5wPOFHTrhqC+Lq9Q3r9gqXxmxTr52oaL5WvrL5LPrtwgH1i0XOuOr80t0sg6GoZBrOS5xCKa92AuLA50vJ0qfYrVudvzzfehdhkiHiNo4IRE07F/XbFevm7+jW9uvFSjxPj8n8z5G42oRsSd5SmvDtIyF5j3FILxP1Zvkv9cs0nnS2/JzlfnB64FvsebqEgwIh0NEH957JDsb2+Rfg84m4j32GmMbThEOKbPGcDxjv4m+9uapWVowHWWEOJkPCrUERnGEP/iOIoiJ4DN88m6Sp1vart+zFeA4Y9sBdR4EuJU0IyzdXhQ56Wj3tMdIBaI+juM11qUmCTvLFks3910mfzfZdfLp41gvjq3UPKM0HZ3FBS/R4L5HSA8MXP2n5etll9ddq2mzjPr5Y1BlB0OFpQZ/Ory6+S/112kI5ngjEQ/DuzD3oz7YmLBH04dl9+cPCqlne0BOWUkEMB13dHSILUBGgRwMnD21pjrQvcJIc7H43kv6RFRsjo5zfUZ8RZYoDGT94WmOqns7Z46GYAg9RURQKYsEiczdnpS/lJ1SlPfkQLuDiDSkR722VUb5HdXvEkj2kh1d8qcYnQMD3fI7+IrYIYvynq+t/kyuW/Lm+W/1l6g5QhhDkj3/335Mbmv4qTUWUxzJc4Ajv8qIwTRR8NWZ31iD5SfVvb20ElGiA/gcaGeGR0tG4zxR7wLInT3VhyXyp7ugF6sV6Wkay0sIU4Fz+rA2Jg8UHVSmgf7XWftgrT02+YtkT8Ygf7e+UulMCZORbGTmrrRlzZz8JbBAYMGgMhGQIf4n198tV5nNPMriUvwmpNyZAL9Uco1FX6UgsGvgDPx6bpqHcXLqK3zQO8KdOOv6OlynSGEOBWPC/W4kDCtY4TRwJmj3mH89KS0mA30sZpKaRpwj+HvC6AOd0listbNEuJUYFQdaG+RE12d+rFNINKWJKbI7YtWyCeWrpZVKWmSZkS7U6LoxB64pugVgP4Al2flaZf4r62/WD69fJ02XMJ66EnJDgGH5rLPNtTI8+Yg/gGuK5wwKKvD+EjiPJDxgB4RpV3trjOEEKficaUMcY7GNjAMvN3cJlDpHx3TplQnuztk0LLh70sgmoSxbLGhbFBFnEvf2Khsa6yVntFh670klhqR/o6ShfLOkkXadR3rMwPX/k+MWfPgoLk+v0jH6v3zsjU6Mu+y7Dztxu6pKPvoxIRG9h6oKjP394hmjxDfBiIdTWrRSwNz9IkzOd7VoaUJmPxDCHEuXglpo1nRlTkFmo5Ho9CzIJreNNgvvys7OmUYuc4HIhgnhc7WrE8nTqZnZESb/2BEmU1Qj35z4Xx5a9ECjbKSwANRdGS44R7A7PuPL1ktbzMfY4ze9Ig3d4Psru1N9bKntdlt/RfcDRrk0cUwBeyK5xtqpWN4WCaMvUGcCcoSTnZ1alM5Qohz8YpQxzxDzHFEXSTm2xHP0Ts6ql3eX2qutzZD1teA8YnOxxdl5miaLyFOBcIF6aMH21utiRjc/xBo6AR+U0GJZpaQwAa9CBLDwuVGcz9gPN5nVqzXsXn5sXHaRd6dIIqOxqa/Lz+qpR2eELy2nbOYoBKok1POBO4KCPTH66o0sk6czaneLtnV0uj6jBDiRLwi1KeNAszexbgY4jnQ4f1PFSdkIoCb98A5VBAbLyuS03j/EUfTPTosZT2d5nXEmhAImjtXFiYkynvmL5bFicmus4RMERcaJrcUzZcfX3ilfHfz5bI+NdPtJRGdw0PySE2FRtc90dwUf49NsY4UfkaP8T5MSuNAn2xvrtf3hDgblChg1j1dTIQ4F68IdRA8Z67O5U2JiHSdIe6md2xUSjvb5IXGWteZwCQ6NFRuLpgnsSGsTSfOpm90VOr67Y6viggKln9ZsV7yY+JY9kFeEwj2K7Py5a6Lt8i3N14qJfGJbusrA6GADK+n66qkc8T9DchCjP1h0/UwMjkh45OUO/VGpL/YVK9lOnw3nE/v6IhG1VGvzutFiDPxmlBHVAfzXBckJGpjG+J+SjvaZGt9jRr/gQqESUJouNxUOM/cd2Gus4Q4E5SqoDO2LaZqkhNkU3qWCjFCXguslUh7L4yJ17p1zGJHpD0jMtr1HXZBBPaZ+mrpHB52nXEjlv1TY+Z3R/+XQKe+fyqazqaAvgGytBoH+uW5hhpeM0IciteEOvZJpL9flJGjkR3iXtB9dV9bc8CnOSWGRahImReXKGFzvXb7E3JO9I+NSoPFiDomHKxLy5Tk8AiOxyTnBO6TzKhouTQrT2ev31q8QIri4l1ftQeELvaojuEhrfl2J8jos5lMggiyJ1L2nQz6C1T0dsnhjjbXmdkTYu69tIhIWZqUIsuTUgP+QANQNGG2SevQoDb/G51kFgQhTmTOaS+70ZBy87X9O+XBqjLWNL0GMK4vzMiR+6+66bxTVfcYA+iHR/bKvadOBGzTG7xzy5PT5POrNsqbC0rcWnPpL8D4fK6xVrY8fI/rzOxBJPeTy9bK7YtXSAab+b0uT9VVyWd3bZOD7S2uM7OjMDZevrB6o7yjeJFEBAe7zjofrFk7WxrkU9ufld2tTa6zs+OXl1wjNxXMk8Rw9qk4V3AdDna0yu/Lj8kfy49Lw4Ddsgz0r/ndFTfINbmF2nTWXdyx/Rm5t+KkRhNt8J2Nl8o7ShapQyNQOdndKT8/dlC+e2iP68zswSjfG/KLZaXZtyHaA51jxl5+zohqjDS0BZxWJfEJcp+xL4vM/oBGu97i8dpK+fLe7VYb3N2xbI18esU6yYqKcZ0hTuexmgr59sHd8rylMl04tzanZ8lTN9zqOuNbeF2oY+P/3uE98rOjB6WaYyJeldkKdXj7IdL/98QRbR4SqESHhMq1eUXy3c2XSWo4eyOcCxTq3uUv1afkn196xtrauCQxWe666CotO/Ilw5dC3VlgCsFPSvfLb8pK1cFu04j473UXybvmLXJrpt3ndj0vvy8/LnWWykq+vv5i/Z1zomNdZwKPh6rKjZ2xT55tqHGdmR2wdSDQ77poi74yA0h0Ys9PjuyXXx4/ZPWZQ6+o/1yzWd5ZskgzXb0FhToBFOpn4/WVD4vxprQs2WAMx/ONFpPXp26gzxi5jVLR2+06E5gUxyXIxZk5FOnEZ8B0BptjjsKCgiU3lk3kyOyAw+eDi1dohoZtAQWnVNeIe+vUI4JCJNjiMzBkntHRAE59h0P3aFe7OnBsgaaXudExsooi/a+UxCXKgoQk61HvgbExebTmlM7AD8x8S0KciyNWP4zJ2pieJfGhjGy4gwcqT8rJro6ATXkHECarUtLkqpxC1xlCnA/qdoctCnUYvAmhYeZ5cJ0g5DzAfZQXHSsfXbJKM5Vs0j48qMLBnaBJnk3xh7p69JMIVCp6ujX1vWvUnoMly4j0damZ2niYTIFypYLYOFmUYHesJhxNLzTWaSkLS1AJcRaOWAHDg4K0UcYV2XmuM8QGaMjTNDignXQxNiWQWZaYovOAmWpNfAk8w8MWDSc4rBCNmcMODWSWxIeFy7W5RSrYbUb4WoYGpH/cvaI3PizM6qi5zpFhtzsXnMyu1gYj1Dusdg5H4zQ0fiV/A6s2pjCgdMkmuG4Yj/iiEevNxmYkhDgHRwj1OcZ4XBCf+Ne56jQh7TA0PiZ/ripTb/ewWYQDFRiRl2Xn6abPhjQkoDF2NGxppjeS2YK1ND0ySjZYzoaD6IVocCfRwaFuiKgHplAfm0S3/hapNHaGLaKCQ7Sx2ZLEFNcZMk1OTKysTk23bstgT3jeCPWmQTsNFgkhdnCMakkIj5BVKelyZXY+U50sgJoxeEbvrTihRkQgG+bLklJlc3o2xwASnwMRcJuRv0mzEmjNu8XIFwlcIHbXp2ZohNoWg0bwjk64t947ISxcQi1mATQN9Eu3xbRvX6Kyt1vKujulc2TEdWb2oCnfwoRkNnp8FdCMtTg2QftD2O41guki6BExOB642SGEOA3HKGIsN9lR0fL24kWSZV4Z+ZwdaAqyq7VJ9puFF5H1QAT3FGq6bsgrliVJKdYbsBDibjA6J9ziGDU0p+sZGzGCnZDZA6GA5lY269Qh0idOu/cOTYmMlPAge88Vans7h4cCsg/MC011Wlpn85otNPfUMrNnk78HIwxRwndRZo51oY6Z6qWd7VoySQhxBo5Sw5ibuj4tQ1Pg4TUk5weMhZr+Xrnn1DEZGbc7OseXQLRnYXySbMkp0Ho3QnyN4LlztIeHLUYnJ6R1cDCgG0sSe8CAyDZrq01n0tjpCbffn5jPHR5st0YdIqc/gJziuELI3Hu2vsZqujSCNIsTk/Ugr06yuX8vz8rTbCvbpaJ7Wps0Q4IQ4gwcF7aOCQmVTy1fp6lP8BySmYNaueNdHbLVbKDujkw4GcxOvGP5Wu2SynuJ+CKIqCMrxBZoTIfURgp1YgWzrkajg7rF9XV4fEIFoDtJDrcbUQd1/X1S09vj+sz/QXYOyuv2tTVL57C9tP/cmFiZH5+ozhTy6iCQtTolXZLCw62Xiu41Qv1Ed4c2MiWEeB/HCXUsOtlRMZoCXxyX6DpLZkJpZ5s8Un1KN9JAJTEsXK7OKZBLM3M1U4MQXwQiHaLCFqj/PdrV4XYhRAIHiHSbUwQQ6bbZ6O3VCDM/H3XqcObaAg6wil57DdWcTt/YqPzF2Bl4tckaI0DhXCevDQIPEOuXZOVqcMsmKJs83tnBqDohDsFxQh3bPVKfbiookY1pmbqZknOn12yaBzta5aXm+oBOeUejldsXr5DE8AhG04nPEmWMsIzIaNdnswdGNSJgYwGcaUNsMjXWyWaGRtjcYLcLdUyaSYuItNoEr7ynS050dQRMtgoy9/5SU25dqK9NzdARZOT1gZNpS3aBxIbaFeqIpB8z9/GB9hbXGUKIN3GcUJ8G6U9vyi+WdWbRptA6dxBN39XSoPVygUpBTJxcb+4dpIa52+AjxJ0grdimUEc332Od7dLQ3yejFuezk8AEmhRzz3WSgCUig4M90kw2IyraaiCgZXBAjnd3SG1/r+uM/wLnTFVft+xrbbY2+hVWXp6x+9DtPSk8YuokeU3QHBfTbNIioqw/L6d6u+RQR6v2NCGEeBfHqhh0s9yckS1X5RRKUWyC6yx5PbB57mhukD0tTcaACsx4erLZ4NEN9cb8EvU408VDfBl00840gsIWmHmMulJ0au4etTdOiQQmiB6f7O602kQt3ohn2/Xjr0ZmpF2hPjwxru/FTrMH+zsdI0PadKx9eMhaLTOyHDakZUlOVIzV0Xn+CoIQcGwsSky23ny5fWhQ7+XaPv93OhHidBwdbsQmemlWrlyXX2R1/Iu/cqq3WzfPqr7AaWhzJvAqI23u+rxidowlfkGsWfdgjNnMKkL0896KExr5Y606mQ3jpyfl5ZYm6R6x10wsPTLKet3tq5FlBCEcuzbBTPGn66uld3RUTvtx8Rmcfdsa61yf2QFr3CWZuZLCJnLnjAa00rOsOnMBnC8Q6S8FgNOJEKfj+LxgCK43F8wzAizd+sxIfwKRjUdrTklpR1vAdnRGhOTGghK5IjvfdYYQ3waRkuLYeBUuttY/RNWfa6iV3S2NGhEj5HzAPtNnBOnzjbXSYbHrN4R6tOW621cjPyZOUiOirGZdtQ0NquNiZ0u9zoP3R+Dcq+/vlRctCnWsbciA25ieybT3GbJJhXqM9ezBOnONt5lnO1DtSUKcguOFOlhqxPq/rFinm2rQHJ/4lT0KFtLGwQE1mNB5NhDBPNEPLVkpVxqRzrQ54i8gHTTGiPUVyWnW6xB/dGSfrhkjrFUn50HH8JD8vvyYRpFt1qhnR8dYT+V9NVCjnmP+LdtTQWrMHvy1fbv0/fHHEVewMfa1tWjjWltEGZGOkjVE0z3Rn8CfKIlL1Oa5tu/jzpFhOdzRKvWD/Zo5QwjxDj6xIsLTujIpTb64ZrN62xlZPxt4uO+tOC5VvT0aLQs0kDL3D/OXaCQ9PTKadenEr0BDuXVpGeqMsglKZH514rD8pbqcYt3NYMY2Rln99OgBOdLR5vNNmjDCaVdLo/49veZjm3J0QXySR9KfsW8gql4cZ7cHztDEuBzpbJOv7d+potYp/WJQQ99kRNdsLQSMoEOJnc1IKzqXX5dXJNHG1iMzA46N5UmpUmTEuk1wfeFserquSobHuT8Q4i18QqhDmKNe/VqzkL+1aIGmOJMpINKbhwblYWMEtg4OuM4GDhAxl2TlyTvnLZbi2AR644nfgeginFCR5l636YSCON9tDO67jVj/fflRTYNnkqN7QD+Ax2srjbA9KP+x+0X53K5t8svjh/T977JY3+0JYLxvra9RkV5uRJst5zD2+dzoWI1yI8LqCYri4mVRQpLrMztA4MCR8eeqcvm5ud4Yl+otxwzsg7LuLrm34qR8dd9O+e99OzRt/XyvGdYMzNdGR3BbwGGSGBYhl2bmSgSF+nmxKjlN5scnuj6zR9fIiNqWQxabRRJCZobPqBp0uEQ0/Z0li+RSI8wwkoJMzU1/tqFGjnd16OilQAKZFosTU+SDi1bIiuRUiTJChhB/A8brsqQUKYlLsG7IdhtD7KWmBvmFEY13Hz+sHashMliXaJfGgX5NI4XAQQbDL48dkjtLD2j5AcT7fZUnZW9bs4p2p6ZLQ9wd62pX0fc/5l55rrFWJiyJdIA9fmVKmoo2m80TXw/M615i9pCIYLtd5vH8NAz0yT0VJ9Qh81RdtTQO9ru+6l7gFKg3/zbqi3914oj8uHSf/KR0v/4eD1SWyeH2Vo2unw+oWz5hhLrN8a9I2V6UmCQFsfEcp3qeICtkfkKS9ZKRwbExHcFXY677MLOuCPEKPrUqYuuGIHt7yUId3Wa7JsfXQN0QjIE/lB+VfiPYA8m0Rh36vPgEzbC4Ib/YYxEYQjwNREt8aLhclpXrlkZLWDt2tzTJtw++rAb9Q0ZIQjTW9/fJwPgYo+yzBO9f69CAvp/Tn/eZ9/xAe4v8tuyofH3/TvnK3h1y19EDKtghsI52tmuasredrxNmj4HjBo7grfXVcvfxKeH3RF2ljgO1CUo7MOXF5si0NwIp9guNwEEKvDtAvfpvy47JDw/vlfsqTmrKOMog8N7ZcoZN308Q0XAEPVtfo70Dvn9or3xxz0tyV+kBvafQqX3UiK395r473wgpsgOOmXvTpiMvIzJaLsrI0Ww4lq2dH/FhYRpRR4aITWBjItNqV3Oj1ckOhJBzJ+hLBtfHPgMaZ8B4hYcahz82bDmTMCNK84whcWvxQm0uNQ3mIO9oaZAfHdkfULXp07WFtxiR/rElq9k8zo3AIEOd5W+MoLAFZiRvTMuS1anpHhnD5A9oUznzXu00z3vjwIAxzu2uefhpg0Y8oLb2yboqKe/pMiIdzaLmyFyz5GB9mdR/9bT5XaZ+H3cb1bj3Rs2/i0gOHAanzO+ElOsmSyU+b8ovUZFmO5r6SiCOkPYOcftqAgcR0BYj5CHckWaKrIaq3m4d8YX3HO81Uo7xfRDO0+ds92rBbzZpfj6irf1jY1p7jialcNr86uQR+e7BPZq9hd/V9o6LJrHpkZHyX2sv1LFpnoqoT7+3bUaM7DN/pzvAz0fDvR3muh50RbMhSmG34N7APT5mri1ecX0nJk/r13CvjOuBr099D54F1MAPmOuDa9Q9OqxC6pD5uU+Y5xZOgV8cPyj3V5Zp5BtOONwv08w1DzPqwS/LytN59TMBafR/LD8uz5hnED/XBriH0Sjz9oXLJTWSWZKzAfcZ7OEDbS2uM5YwjyKex/VpmZLm5muENR5j/5ARYosN5vdGZ/xAD+z5ErA/sF7aao4dMjdIy6pum7/Edca38Emhji18usslPP0wHPyZ1xLq8J4jne2EeQ8CiaTwSHnvgqXyocUrJS6Mi687oVB3BjBo0ZvjsBHSNX291gzlVwMGOa45Upsxb/0hIx5PGqMf4gBiEZsexK07xRSECiK5MNx2tNSr8wAitrSzXR0KNvCUUIfRCRGFaOq5gPT30q52eaq+Wu45dVzurzgpR8zfXdnbI81mrxsx1wB7QpR5dmxdAUi5MQjWoSHZ1dIkD1WVaznE9w7v0TT9g+0tGrU9U/TZJDE8XLbkFMpbi+ZrSZMniUDvB/NGIi381RwptoCQwr3wfEOt/F9ZqTxWWym7WhvVhqk2z3RFT7exZQY1rRz3ALpuw7apMdcdqccnujs0Gv6CETKP11XKn8y98aPSffKtgy+bn3dUnquvlZM9nepgeS3w1+E5fpuxJWbasA/rzu/Kj8netnO7j88F3MMXZuTI+8x+fqZtQ2YOSv/QPwJrjc37GM0QUbpzTW6hBkhsOwjPhEKdAAr1s5ljHkL37UxuBL80UnHwUH9pz0tSZjYoGJj+CDzg2Mzuv+qmvy6SPaOj8qeK4/KFl18IqJQkLLYfX7pa3lGyULucclyfe8EzBcG25eF7XGdmD+roPrlsrdy+eIVkMIoyI7Y312tTKERoPQGM5xDzjMEIxBFmNjxksOAaImU1MypaYsz58KCpr4cb0Rs6d+5ZtaZI831lxs8ARJ9r50GUHg4ACPN2IxSnRQqi6BCPiCIi8jg0MWb+v3GNOtrgl5dcIzcVzFOR6E4wAu97h/Zo1/eZgryF4LlTM6bh4AoNmqvvPz5GuQ/Ww4SwMI2O4ppEmvcf12La+YD/D/8/NkxcA0RjAcTayOS4irpW856jEWnHyJCKSVwvPcz7PTQ+oZFcd4I9bWliitx18RZZk5Kh0WZPAlEDEYwGf0/XVWvE2xNMXccg80wFS4i5rngfgs2zhlcc2OnxiMBEwyucV7j3sSbjwPXE9cKzc67CDD8TRusT179NZ5bjPjpX4Kz9weG9VjMPVqWky4cWrZAPLFruOkPOF9wDWxtq5HM7n1eHjk1wP3557YXyrnmL3FYmArCvfXnvdp0oYYs7lq2RT69Yp5k6xDd4rKZCvn1wt+6dNsA+uDk9S5664VbXGd/CZ4U6wK/eYQy6p+ur5Zv7d+rYEGxc/sarCfWXmurlp8cOasTLhy/hOYO/Gx3eP7J4lby1eIHMj0tkyrsHoFB3FkiHvusoGkMd1uiDt4AQx+YHsQhhhc9xIMqOY3qdAuNGkb9SSJwp/qZFCM5BIGINx1xunHMnnhLqEDh3le6XnRaNT7y7eI+xBiK6Pu1AmboG5lq4HJj4fPpS4BogrRrgvT7zPdf3fQaCzyY50bFyS9F8IwQuUGeP+4sq/h44iVDb/eEXn5K2oUGvvA+e5JeXXC035JdI6jlG1fF+fHDbk9q/Au+PLZAlCBG1xgh2MnuQnYFpDD88ss91xh7X5xXJv5hrdUlmruuMfSjUCaBQPxvPuq4tg2hPYli4XJ1TIB9ZslprnbDR+zv942Oyu61JXm5pCAiRDmMT89Hfv2C5buzzKNJJgAKn3ZVmvbsyO1+ivVg2AAcOorFoeIbRY6jBxdgmGIpITz/c0fbXA53CEbE884BTdfrA/4umW0ivRDQdDdTcLdI9CZp82eySDfDu4D2CwEbnfqRMo0lZVW+POnCm3+fSzjad244DDerOfP+RVthg3nNkLyDS7g1xCgNqdUqa3Fw4T+9nb4h0gH97ozHkYMwFQorscfOs4lk7FxDFx72C59hm9h7e53lxCVJsef53IAPH9wUZOdqY0faThEaCKM/wx2AYIU7Gp4U6QFQBaX9Iyblt3hKz6ft/3Stq0ve2Nqth5u8gWofaklsK58tHlqyUefGJGkEiJFBBmvB1eUWyLjXjrMg1cR5oBFbb1yttw3aFuj+Ae3dJYrJca+7ltSkZrrPeAVkgmKjwrpLFOgbR3x3B6Nx+rkJ9ZGJSXmyq067xryxhmQ0oXUOn8pk2tSOvDZwfixKStPs7ShxsAkcqnHxwzhJCPIfPC3UAUxUpmGgw9g/zl2rdk79G1tEZ9pn6am3u4+/peRDpaKJ3Y0GJfHrlOv3Y0/WLhDgNPAMQ6e+Zv0SdWBTrzgUp1TBsUbJA/gbuWPQ3uKlwntyQV+wI5yueKzjAMAYR/Rf8+ak6aQRX58iQvNH0CHwVo9weq6nUzAubrExOk3nxSa7PiA2wF2C84ZU5+dabZMLeRIYUsnMIIZ7Dr1QPmhi9vXihNhvzRlMaT4C56ahPR7qoP4MNJzs6RsXI51dtkPSIKL82nAiZCejYfHVugXx25YaplGGKdUdS2TM1Zo2cDUTEe+Yt0R4B6Q7qUwGHwQcWrZALM7L9Oqpe29+nHf7fKI15YnJSmwxua6rTUhdbYH9fnpwqxfEJrjPEFiiPuj6v2C2lUYc7WuVgh/8HiQhxEn6nZFHPfEV2vnxl3YXyjpJFfhdtwkiWit4uv18oFycmqwj5x4XLJDaEYzUIeSXJ4ZFyU2GJfGHVRslkUz5Hcrzr3GuBAwHsxqif/fSK9XLb/MU6ZtVp5EXH6rgwiB1/BT0mqvu6pWXw9UsyEEXf6pqbbtPmwFhElBjE+XmZojdA3weMJMuKiraeqYJGgie7uwR9SQghnsHvhDoMAYyoWZaUIh9dsko+vHilRp98Xa6jcRBm6D5VV621Qv4KsiC25BQY8bFJrsstkqSwCKb2EvIqoK4WYh39OT68eJUav3xWnEVZT4emv5Op+zXbiOB/W71R3lmySApiUEfrPBMEzn50IcdzhawVfwWNB5vfoN4Yc7lRajc2YXf07ca0LO3CzfXKPnhPIdYvysyRFLM/2AR2KLI5X26x15WdEPL6+F9uuAssVIsTkuX9C5fJx5asluXJaTOaGeo04NF+qKpcTvV2yfC4Z+a8ehJsLmkRUfL24kVaunBpVq6kRkZxIyfkdYD4gcF7a/EC+dDilbIpPcsvS358lfKeLummUNc03PVpmfKp5Wvl3fOmIulObgqKplyb07PlfQuWaYYenjN/o7Kv53Ubg2GePCKnGJWFpoi2wHuJ0gL0KCDuAXer2lDnOH5vJlQbob6juYHp74R4CL+26FBjhg7JqHN+/4KlstlsDmi04WvAi4nxPn8oP6bjUfxteQwPDpZFCckaZfng4hXazAfXiRKdkHOjOC5B3lo0Xz6wcLk2xMrmzFivAiN2YGxMO74PjAVujTocrbkxsXJNbqHcvmiFvMus8ej27QvOJIicy7Ly5IPm974mt2hqT/IjwV7dC6E+8JojXmFzHOpo1Qw+W6IM2Qr5MXFa2hYfxpI2d4H7FM36csyzZztA1T48pKMe6/v7KNYJ8QABEXpBrc5tRqx/yIhAeMfzzOLlS5Ha0YkJHY2yp61Z5+b6E9isVyenqzPljuVrtJu17bEihAQC6FR9ixHr6O2AVzgp40LD/DIa6HRgwMKgxXodiMYs9lfce8uTUuVtRQvkE8tWyztKFmoZmi+RHB4hN+QXy+dWrZctOfmSExXjN+NB4fTvGh7WSTKvRk1fj2xvanB9ZgeIxouzcvU+CJ7DzB93gRUf+8ESswekRdp95jCir3GwX7Y312sQiRDiXgJmpcT4thvzS7TJ3D8uXC6ZZhHDhjvHB+K2WBjRcRUdWP0FGHIQ6Rdn5sq/rlynvQSwsRBCzp/pRkJY576+4WLzfOXo9ASsfxTsngPmKxys8+ITJTcmTmdFQ6T4eykP7jHcg1jLIchwD35h9Sa5ID1bm8j5IrATkAb/1fUXa906mqDhb/TFK4n7Dx33E8MjtPwgJjRUx6+9EqS6o4Z9T6vdWmT0D7oyO58NYj3EprQsc78muj6zB5rKPVlXLaOTrz81gBAyewLOpYm0K4jCuy+7VuvWbc+aJG9M0Jy5kmQMhX9btVG+teESs3EX+E2UghAnEBUSKlflFMhvr7hB7rroKnlL0Xzt+UA8A1K7i+Li5X8vu04evPom+eKazeo0ifHzLteIlN5YUCK/uvQa+d3l18vlWXkaWfcHCozt8O+rN8l3N10ub8ov9rnxbUiHxv2HZq3f3XSZuS9v1lKzuFcpB0S6+/HuDmk2gswW2PdRPoByAjgIiPtZnZKmpSa2nbSYBvBCU62+2uxfQAj5e4K+ZHB9HBBgs4JnPzUiSi7KzJY0Y1h0joxI+9CQTPpd9bfzQJdqdNL96oaL5dLMPEmPjGbzKweDtN3qvh75TdlR15nZg8giuv6uTk33e+HiLWCWIXoGMYE51WjkheZCC+OTzBqIiMiQGlj+vuLBQE02a/z8+ETZYO65K3Py5a1FC4xAWSkXZ+Wow9BdUW7sNVjbkDmEfx/v/5uMiF2fmimZrh4Cg+NjbzjL2sngncPcZnSY1satS1fr+4u/F84ivP/ueXc9D65nMGyHyEgjgNJlc3qWWctCtHM6Gq858VnCWotpENfmFck/mevzyeVr5ZbC+TrDHE4V2EKvdn1eaqqXh6tPaTNEWyRHRMgVOXk6O9+fZ9Q7CVz/ir5uOdndKd3GzrUF7vW5c+ZKcWyCOrAigkOmvjBLTpn7bVtjndQP9LnOzB5kmKHJKhpEEt8A6w4aFsL2tAHKaXOjY7UE2heZc/q1OokEAPjT0dV0T2uzPFVXJVsbaqSO8yHdAqIqa1MzNMq3KT1bliYl+0zpQSCDebv72prlEy9tdZ2ZPdEhIXJr8UK5uXCe1oASz4B6aTSIQu1pdX+PnOzqlBPdHWrE4Vz/2N+nwDoZiEB0E08MC5eE8HDzGqEROwhjvOJ8UnikxJu1B+sPBCUieXAOxYWGS6S5D4PdJNJfDWy045MT0jk8LC3mOrQMDWhDJkzymL4WaPA1ZESfk+vaUUaBjt0Q42gCCiGINGo0jUMDNqSF+zuoze0bG5XKnm451tUu+9tatPHaSXMN0aDNW9cPwgw1yfPizLVJTJYFrtILlPrhPJ6H0HNwjP/x1HG5t+KEuT/tjYLNjY6Rt5cs1BJENJUjnuH5xlq9lntbW1xn7IBs1KuNPffeBUvVGWyD7Uac3X38sJR2trvOzB70xkATS1/rjxHIQKT/ruyo7DXrqg3CjdZYmpQiP77wStcZ3yKghfo02HBPdHXIC011stPcIFgs4H2cYErPrIAJDM/5QmPMXZCRLZdm5qpYt7WoE/cDgxOiYpvZ7G0B7+a8+AT1xrP0xDugthAiUUV7X686LCEwWs0BAdk5PKRjxXpHRzXq6240+m/uC9SwIjoTHhwkEUEh+jmEHyZDhJmvRxlxHWHECER2rBHc0UZ4qwgPmRLiiJpAiE9/jAPCxKm14YPj4/p+Q6AjeoBr0jzUr6nHLYOD0jE8KF3mOvSY/WjMXDNPbtYQU9HmvU8ID9dMKGSfwdiFSEd0AmVkBUagTzdYQ8Q5EEE0HbOlEQ2sdF1HPE+o40VDwXbziln66DVjC7zXeB4SzbVBVggcnugLgH4UuDZ55toUxsZJjvkYjpWZ3v+HO9qkvKfT6u+MPg3LjbGM/Z8Oes+B+xARStyTNkEpA9YDpNfbyozDune0q13n99sCDsUF8Um0NXwIjI080dWpe6MNpsptp8pufBEK9TOAYD/U3ir3VZyU/e0tUtHbJV2owfGjJm6eAJswDGoYDAsSkPKZJ1dk5Uu+MRxs10oRQmYP0q/bjHFU3detI8VgMLWaTRJCAxFgTdE2QhEN0nDAgEfqPBw5r2bM4yk/M2qGjRJp4CFB5jAfw4EHhw2+B0I6zIhvGFIQ34h6I1KOY/pzpFFDtMcZQT4tznH4W9kMIrUtgwMq/CD4Ggb61FEGY7tvdFT6x0f1WuGYvg4Q8HiFY3l88vRZDmacn97g8U5BsE2LtulrMnUtcB2CVHDjOsA5AmcHshQgrCD4EDHHmp5hPse1IX8P3vuukRGNrNf29UnjYJ/U9ZtraK4p7Atktei1M9cMr7h2eIZwjV5pZ+A6TZUOoIRl6hnB9UHUHM8ChC8i5XCcZEXFaE8ECHRkkBBCCPEPKNRfAd4MGEBP11fLQ1Xlsqe1SUdRoOu6k9MRnQAMisiQYEkyxt38+CR5U0Gx3JhfrNEYproR4ntAOA6OjU1F2UeGNTKIsU5TogNicdyVMn/22oj6RTjrpoHAQNQFB0ofNNptRDe+Zzod3alRb6fQPTosTQMDGm3Cx8j66jXXAXPakfkA4Ye0+eGJv2VAYJb79AgliL5pUQ7C5wbre4/rAOcHBB7EX1pElIo/RCAgCsnswbVBhgqi6x0j5vqZa4ej31w7iPap5+zsefshLlGO5wJOKZRzJOGIiNQIOj6n45sQQvwbCvXXASltL7c0aa3EQ9XlLrEOk5Rv2SuBMQGPP5p2vKN4oVybW6TNYwghhBBCCCGEzAwK9dcBgnx4HJ7wYanp65XnG2rlgaoyKevu9Ejdpi8Ajz6iYZdl58tbCufJyuQ0SYuM0tRJevsJIYQQQgghZOZQqJ8DEOxIXUOdIOo397Y1a1dCdMO23aDDV0BH5QUJSTpma1NGluRFx0q2OVBTyjR3QgghhBBCCDl/KNRnCOrUmwcHtNEcxhod6+qQo51t5mjXGk5/bTyH1HY0GULt+eLEZFlsRDo+RgMbjOZBYyjGzwkhhBBCCCFk9lCoz4LhiQkdI4BO8Zihik69iLijU2/b8KA28vFl0HQIDWsyo2IkJzpGx/EsSUyRFcmpKs7R4IYQQgghhBBCiF0o1C1SbwT6gbYWTY1HhL1uoFd6XZ15MVoH3V2d2jke0XCkrGsX5pCp0UcpERFSEpcoq1PSZY05FiYkSZD5HkbOCSGEEEIIIcR9UKi7CYzJQf36zuYG2dvaLAfbWzTSPjA+runxODBzFWNZPC3eIbQhuNHsDbN0IdAxPglj1ZDWDmG+IS1TFpmPEVGnMCeEEEIIIYQQz0Gh7ibwpkKAT4vyMSPK0YwOHeNLO9vleFe7VPb2yKmeLukaGVbR7gnmuGrNkcZeFBsvxXEJsjghWQU6zmHObrBLvAeb78X3E0IIIYQQQgjxHBTqHmTMCPah8TGNqmO827B5ReS9Y3hIWoyIbxsaMMeQNqvrGhky32e+d2xMekdHdYb7wPio/pzxydPmZ00IpD3ENKLhIHRu8FTqemiodl/H2LTE8AhJMkeyOVIiIiUtIsockfp94UHBKtoxSg2fYw46ZTkhhBBCCCGEeBcKdQeA0W9TonzUCPhx6Tevw0bAj5rzo0bc43UEn5uPASL1OPAfurEjfR3gNTTIHHODVLzjNcKI8EiXGI8MMUI+ONQcRpAzUk4IIYQQQgghjoRCnRBCCCGEEEIIcRBToVhCCCGEEEIIIYQ4Agp1QgghhBBCCCHEQVCoE0IIIYQQQgghDoJCnRBCCCGEEEIIcRAU6oQQQgghhBBCiIOgUCeEEEIIIYQQQhwEhTohhBBCCCGEEOIgKNQJIYQQQgghhBAHQaFOCCGEEEIIIYQ4CAp1QgghhBBCCCHEQVCoE0IIIYQQQgghDoJCnRBCCCGEEEIIcRAU6oQQQgghhBBCiIOgUCeEEEIIIYQQQhwEhTohhBBCCCGEEOIgKNQJIYQQQgghhBAHQaFOCCGEEEIIIYQ4CAp1QgghhBBCCCHEQVCoE0IIIYQQQgghDoJCnRBCCCGEEEIIcRAU6oQQQgghhBBCiIOgUCeEEEIIIYQQQhwEhTohhBBCCCGEEOIgKNQJIYQQQgghhBAHQaFOCCGEEEIIIYQ4CAp1QgghhBBCCCHEQVCoE0IIIYQQQgghDoJCnRBCCCGEEEIIcRAU6oQQQgghhBBCiGMQ+f+pu6ATyEtOGgAAAABJRU5ErkJggg==;" vertex="1" parent="1">
          <mxGeometry x="527" y="311.06" width="112" height="27.94" as="geometry" />
        </mxCell>
        <mxCell id="K3-YJQwZbEx7j-FqKvEN-17" value="" style="rounded=0;whiteSpace=wrap;html=1;" vertex="1" parent="1">
          <mxGeometry x="630" y="270" width="10" height="10" as="geometry" />
        </mxCell>
        <mxCell id="K3-YJQwZbEx7j-FqKvEN-18" value="" style="rounded=0;whiteSpace=wrap;html=1;" vertex="1" parent="1">
          <mxGeometry x="640" y="270" width="10" height="10" as="geometry" />
        </mxCell>
        <mxCell id="K3-YJQwZbEx7j-FqKvEN-19" value="" style="rounded=0;whiteSpace=wrap;html=1;" vertex="1" parent="1">
          <mxGeometry x="400" y="410" width="10" height="10" as="geometry" />
        </mxCell>
        <mxCell id="K3-YJQwZbEx7j-FqKvEN-20" value="" style="rounded=0;whiteSpace=wrap;html=1;" vertex="1" parent="1">
          <mxGeometry x="400" y="420" width="10" height="10" as="geometry" />
        </mxCell>
        <mxCell id="K3-YJQwZbEx7j-FqKvEN-23" value="&lt;font style=&quot;font-size: 7px;&quot;&gt;8000&lt;/font&gt;" style="text;html=1;strokeColor=none;fillColor=none;align=center;verticalAlign=middle;whiteSpace=wrap;rounded=0;" vertex="1" parent="1">
          <mxGeometry x="640" y="280" width="20" height="10" as="geometry" />
        </mxCell>
        <mxCell id="K3-YJQwZbEx7j-FqKvEN-24" value="&lt;font style=&quot;font-size: 7px;&quot;&gt;8000&lt;/font&gt;" style="text;html=1;strokeColor=none;fillColor=none;align=center;verticalAlign=middle;whiteSpace=wrap;rounded=0;" vertex="1" parent="1">
          <mxGeometry x="619" y="280" width="20" height="10" as="geometry" />
        </mxCell>
        <mxCell id="K3-YJQwZbEx7j-FqKvEN-26" value="&lt;font style=&quot;font-size: 7px;&quot;&gt;5432&lt;/font&gt;" style="text;html=1;strokeColor=none;fillColor=none;align=center;verticalAlign=middle;whiteSpace=wrap;rounded=0;" vertex="1" parent="1">
          <mxGeometry x="410" y="408" width="20" height="10" as="geometry" />
        </mxCell>
        <mxCell id="K3-YJQwZbEx7j-FqKvEN-27" value="&lt;font style=&quot;font-size: 7px;&quot;&gt;5432&lt;/font&gt;" style="text;html=1;strokeColor=none;fillColor=none;align=center;verticalAlign=middle;whiteSpace=wrap;rounded=0;" vertex="1" parent="1">
          <mxGeometry x="410" y="418" width="20" height="10" as="geometry" />
        </mxCell>
        <mxCell id="K3-YJQwZbEx7j-FqKvEN-28" value="" style="shape=cylinder3;whiteSpace=wrap;html=1;boundedLbl=1;backgroundOutline=1;size=7.885707310267833;" vertex="1" parent="1">
          <mxGeometry x="387.5" y="450" width="35" height="41" as="geometry" />
        </mxCell>
        <mxCell id="K3-YJQwZbEx7j-FqKvEN-29" value="" style="shape=note;whiteSpace=wrap;html=1;backgroundOutline=1;darkOpacity=0.05;size=8;" vertex="1" parent="1">
          <mxGeometry x="596" y="260" width="20" height="30" as="geometry" />
        </mxCell>
        <mxCell id="K3-YJQwZbEx7j-FqKvEN-30" value="" style="shape=note;whiteSpace=wrap;html=1;backgroundOutline=1;darkOpacity=0.05;size=8;" vertex="1" parent="1">
          <mxGeometry x="395" y="315" width="20" height="30" as="geometry" />
        </mxCell>
        <mxCell id="K3-YJQwZbEx7j-FqKvEN-31" value="" style="shape=note;whiteSpace=wrap;html=1;backgroundOutline=1;darkOpacity=0.05;size=8;" vertex="1" parent="1">
          <mxGeometry x="470" y="314" width="20" height="30" as="geometry" />
        </mxCell>
        <mxCell id="K3-YJQwZbEx7j-FqKvEN-32" value="&lt;font style=&quot;font-size: 7px;&quot;&gt;FastAPI.py&lt;br&gt;&lt;/font&gt;" style="text;html=1;strokeColor=none;fillColor=none;align=center;verticalAlign=middle;whiteSpace=wrap;rounded=0;" vertex="1" parent="1">
          <mxGeometry x="599" y="290" width="20" height="10" as="geometry" />
        </mxCell>
        <mxCell id="K3-YJQwZbEx7j-FqKvEN-38" style="edgeStyle=orthogonalEdgeStyle;rounded=0;orthogonalLoop=1;jettySize=auto;html=1;exitX=0.5;exitY=1;exitDx=0;exitDy=0;entryX=0.5;entryY=0;entryDx=0;entryDy=0;" edge="1" parent="1" source="K3-YJQwZbEx7j-FqKvEN-33" target="K3-YJQwZbEx7j-FqKvEN-19">
          <mxGeometry relative="1" as="geometry" />
        </mxCell>
        <mxCell id="K3-YJQwZbEx7j-FqKvEN-33" value="&lt;font style=&quot;font-size: 7px;&quot;&gt;PredictXCoin.py&lt;br&gt;&lt;/font&gt;" style="text;html=1;strokeColor=none;fillColor=none;align=center;verticalAlign=middle;whiteSpace=wrap;rounded=0;" vertex="1" parent="1">
          <mxGeometry x="470" y="345" width="20" height="10" as="geometry" />
        </mxCell>
        <mxCell id="K3-YJQwZbEx7j-FqKvEN-36" value="&lt;font style=&quot;font-size: 7px;&quot;&gt;TrainXCoin.py&lt;br&gt;&lt;/font&gt;" style="text;html=1;strokeColor=none;fillColor=none;align=center;verticalAlign=middle;whiteSpace=wrap;rounded=0;" vertex="1" parent="1">
          <mxGeometry x="395" y="345" width="20" height="10" as="geometry" />
        </mxCell>
        <mxCell id="K3-YJQwZbEx7j-FqKvEN-37" value="" style="endArrow=none;html=1;rounded=0;exitX=0.5;exitY=0;exitDx=0;exitDy=0;exitPerimeter=0;entryX=0.5;entryY=1;entryDx=0;entryDy=0;" edge="1" parent="1" source="K3-YJQwZbEx7j-FqKvEN-28" target="K3-YJQwZbEx7j-FqKvEN-20">
          <mxGeometry width="50" height="50" relative="1" as="geometry">
            <mxPoint x="670" y="370" as="sourcePoint" />
            <mxPoint x="720" y="320" as="targetPoint" />
          </mxGeometry>
        </mxCell>
        <mxCell id="K3-YJQwZbEx7j-FqKvEN-41" value="" style="endArrow=none;html=1;rounded=0;" edge="1" parent="1">
          <mxGeometry width="50" height="50" relative="1" as="geometry">
            <mxPoint x="404.88" y="388" as="sourcePoint" />
            <mxPoint x="404.88" y="356" as="targetPoint" />
          </mxGeometry>
        </mxCell>
        <mxCell id="K3-YJQwZbEx7j-FqKvEN-43" value="http://ip:8000/PredictTrade/IdCrypto" style="rounded=1;whiteSpace=wrap;html=1;" vertex="1" parent="1">
          <mxGeometry x="700" y="240" width="230" height="20" as="geometry" />
        </mxCell>
        <mxCell id="K3-YJQwZbEx7j-FqKvEN-44" value="http://ip:8000/TrainModel/IdCrypto" style="rounded=1;whiteSpace=wrap;html=1;" vertex="1" parent="1">
          <mxGeometry x="700" y="285" width="230" height="20" as="geometry" />
        </mxCell>
        <mxCell id="K3-YJQwZbEx7j-FqKvEN-45" value="" style="edgeStyle=elbowEdgeStyle;elbow=horizontal;endArrow=classic;html=1;curved=0;rounded=0;endSize=8;startSize=8;exitX=1;exitY=0.5;exitDx=0;exitDy=0;entryX=0;entryY=0.5;entryDx=0;entryDy=0;" edge="1" parent="1" source="K3-YJQwZbEx7j-FqKvEN-18" target="K3-YJQwZbEx7j-FqKvEN-43">
          <mxGeometry width="50" height="50" relative="1" as="geometry">
            <mxPoint x="670" y="290" as="sourcePoint" />
            <mxPoint x="720" y="240" as="targetPoint" />
          </mxGeometry>
        </mxCell>
        <mxCell id="K3-YJQwZbEx7j-FqKvEN-46" value="" style="edgeStyle=elbowEdgeStyle;elbow=horizontal;endArrow=classic;html=1;curved=0;rounded=0;endSize=8;startSize=8;exitX=1;exitY=0.5;exitDx=0;exitDy=0;entryX=0;entryY=0.5;entryDx=0;entryDy=0;" edge="1" parent="1" source="K3-YJQwZbEx7j-FqKvEN-18" target="K3-YJQwZbEx7j-FqKvEN-44">
          <mxGeometry width="50" height="50" relative="1" as="geometry">
            <mxPoint x="660" y="310" as="sourcePoint" />
            <mxPoint x="710" y="260" as="targetPoint" />
          </mxGeometry>
        </mxCell>
        <mxCell id="K3-YJQwZbEx7j-FqKvEN-48" value="" style="rounded=1;whiteSpace=wrap;html=1;" vertex="1" parent="1">
          <mxGeometry x="110" y="220" width="240" height="323" as="geometry" />
        </mxCell>
        <mxCell id="K3-YJQwZbEx7j-FqKvEN-49" value="Volume&amp;nbsp;" style="rounded=0;whiteSpace=wrap;html=1;" vertex="1" parent="1">
          <mxGeometry x="185" y="543" width="70" height="17" as="geometry" />
        </mxCell>
        <mxCell id="K3-YJQwZbEx7j-FqKvEN-50" value="&lt;font style=&quot;font-size: 10px;&quot;&gt;/data/timescaledb/&lt;/font&gt;" style="rounded=1;whiteSpace=wrap;html=1;" vertex="1" parent="1">
          <mxGeometry x="435" y="503" width="150" height="20" as="geometry" />
        </mxCell>
        <mxCell id="K3-YJQwZbEx7j-FqKvEN-51" value="&lt;font style=&quot;font-size: 10px;&quot;&gt;/var/lib/postgresql/data&lt;/font&gt;" style="rounded=1;whiteSpace=wrap;html=1;" vertex="1" parent="1">
          <mxGeometry x="125" y="503" width="210" height="20" as="geometry" />
        </mxCell>
        <mxCell id="K3-YJQwZbEx7j-FqKvEN-53" value="" style="endArrow=classic;startArrow=classic;html=1;rounded=0;exitX=1;exitY=0.5;exitDx=0;exitDy=0;entryX=0;entryY=0.5;entryDx=0;entryDy=0;" edge="1" parent="1" source="K3-YJQwZbEx7j-FqKvEN-51" target="K3-YJQwZbEx7j-FqKvEN-50">
          <mxGeometry width="50" height="50" relative="1" as="geometry">
            <mxPoint x="660" y="260" as="sourcePoint" />
            <mxPoint x="710" y="210" as="targetPoint" />
          </mxGeometry>
        </mxCell>
        <mxCell id="K3-YJQwZbEx7j-FqKvEN-54" value="&lt;font style=&quot;font-size: 10px;&quot;&gt;/home/ubuntu/Project_OPA_Docker/models/&lt;/font&gt;" style="rounded=1;whiteSpace=wrap;html=1;" vertex="1" parent="1">
          <mxGeometry x="126.25" y="240" width="207.5" height="20" as="geometry" />
        </mxCell>
        <mxCell id="K3-YJQwZbEx7j-FqKvEN-57" value="&lt;font style=&quot;font-size: 10px;&quot;&gt;/home/ubuntu/Project_OPA_Docker/logs/&lt;/font&gt;" style="rounded=1;whiteSpace=wrap;html=1;" vertex="1" parent="1">
          <mxGeometry x="126.25" y="265" width="207.5" height="20" as="geometry" />
        </mxCell>
        <mxCell id="K3-YJQwZbEx7j-FqKvEN-60" value="&lt;font style=&quot;font-size: 10px;&quot;&gt;/home/ubuntu/Project_OPA_Docker/models/&lt;/font&gt;" style="rounded=1;whiteSpace=wrap;html=1;" vertex="1" parent="1">
          <mxGeometry x="382" y="240" width="207.5" height="20" as="geometry" />
        </mxCell>
        <mxCell id="K3-YJQwZbEx7j-FqKvEN-61" value="&lt;font style=&quot;font-size: 10px;&quot;&gt;/home/ubuntu/Project_OPA_Docker/logs/&lt;/font&gt;" style="rounded=1;whiteSpace=wrap;html=1;" vertex="1" parent="1">
          <mxGeometry x="382.25" y="265" width="207.5" height="20" as="geometry" />
        </mxCell>
        <mxCell id="K3-YJQwZbEx7j-FqKvEN-63" value="" style="endArrow=classic;startArrow=classic;html=1;rounded=0;entryX=1;entryY=0.5;entryDx=0;entryDy=0;exitX=0;exitY=0.5;exitDx=0;exitDy=0;" edge="1" parent="1" source="K3-YJQwZbEx7j-FqKvEN-60" target="K3-YJQwZbEx7j-FqKvEN-54">
          <mxGeometry width="50" height="50" relative="1" as="geometry">
            <mxPoint x="420" y="420" as="sourcePoint" />
            <mxPoint x="470" y="370" as="targetPoint" />
          </mxGeometry>
        </mxCell>
        <mxCell id="K3-YJQwZbEx7j-FqKvEN-64" value="" style="endArrow=classic;startArrow=classic;html=1;rounded=0;entryX=1;entryY=0.5;entryDx=0;entryDy=0;exitX=0;exitY=0.5;exitDx=0;exitDy=0;" edge="1" parent="1" source="K3-YJQwZbEx7j-FqKvEN-61" target="K3-YJQwZbEx7j-FqKvEN-57">
          <mxGeometry width="50" height="50" relative="1" as="geometry">
            <mxPoint x="420" y="420" as="sourcePoint" />
            <mxPoint x="470" y="370" as="targetPoint" />
          </mxGeometry>
        </mxCell>
        <mxCell id="K3-YJQwZbEx7j-FqKvEN-66" value="" style="shape=note;whiteSpace=wrap;html=1;backgroundOutline=1;darkOpacity=0.05;size=4;" vertex="1" parent="1">
          <mxGeometry x="500" y="281.75" width="10" height="16.5" as="geometry" />
        </mxCell>
        <mxCell id="K3-YJQwZbEx7j-FqKvEN-67" value="" style="shape=note;whiteSpace=wrap;html=1;backgroundOutline=1;darkOpacity=0.05;size=4;" vertex="1" parent="1">
          <mxGeometry x="398" y="222.5" width="10" height="16.5" as="geometry" />
        </mxCell>
        <mxCell id="K3-YJQwZbEx7j-FqKvEN-68" value="&lt;font style=&quot;font-size: 7px;&quot;&gt;TrainXCoin.log&lt;/font&gt;" style="text;html=1;strokeColor=none;fillColor=none;align=center;verticalAlign=middle;whiteSpace=wrap;rounded=0;" vertex="1" parent="1">
          <mxGeometry x="528" y="288.25" width="20" height="10" as="geometry" />
        </mxCell>
        <mxCell id="K3-YJQwZbEx7j-FqKvEN-70" value="" style="shape=note;whiteSpace=wrap;html=1;backgroundOutline=1;darkOpacity=0.05;size=4;" vertex="1" parent="1">
          <mxGeometry x="426.5" y="281.75" width="10" height="16.5" as="geometry" />
        </mxCell>
        <mxCell id="K3-YJQwZbEx7j-FqKvEN-71" value="&lt;font style=&quot;font-size: 7px;&quot;&gt;PredictXCoin.log&lt;/font&gt;" style="text;html=1;strokeColor=none;fillColor=none;align=center;verticalAlign=middle;whiteSpace=wrap;rounded=0;" vertex="1" parent="1">
          <mxGeometry x="457" y="288.25" width="20" height="10" as="geometry" />
        </mxCell>
        <mxCell id="K3-YJQwZbEx7j-FqKvEN-72" value="" style="endArrow=classic;html=1;rounded=0;exitX=0;exitY=0;exitDx=20;exitDy=19;exitPerimeter=0;entryX=0.5;entryY=1;entryDx=0;entryDy=0;entryPerimeter=0;dashed=1;" edge="1" parent="1" source="K3-YJQwZbEx7j-FqKvEN-31" target="K3-YJQwZbEx7j-FqKvEN-66">
          <mxGeometry width="50" height="50" relative="1" as="geometry">
            <mxPoint x="640" y="420" as="sourcePoint" />
            <mxPoint x="690" y="370" as="targetPoint" />
            <Array as="points">
              <mxPoint x="505" y="333" />
            </Array>
          </mxGeometry>
        </mxCell>
        <mxCell id="K3-YJQwZbEx7j-FqKvEN-74" value="" style="endArrow=classic;html=1;rounded=0;exitX=0;exitY=0;exitDx=20;exitDy=19;exitPerimeter=0;entryX=0.5;entryY=1;entryDx=0;entryDy=0;entryPerimeter=0;dashed=1;" edge="1" parent="1" source="K3-YJQwZbEx7j-FqKvEN-30" target="K3-YJQwZbEx7j-FqKvEN-70">
          <mxGeometry width="50" height="50" relative="1" as="geometry">
            <mxPoint x="540" y="380" as="sourcePoint" />
            <mxPoint x="590" y="330" as="targetPoint" />
            <Array as="points">
              <mxPoint x="432" y="334" />
            </Array>
          </mxGeometry>
        </mxCell>
        <mxCell id="K3-YJQwZbEx7j-FqKvEN-75" value="&lt;font style=&quot;font-size: 7px;&quot;&gt;XCoinPredictionModel.sav&lt;/font&gt;" style="text;html=1;strokeColor=none;fillColor=none;align=center;verticalAlign=middle;whiteSpace=wrap;rounded=0;" vertex="1" parent="1">
          <mxGeometry x="442.5" y="226.75" width="20" height="10" as="geometry" />
        </mxCell>
        <mxCell id="K3-YJQwZbEx7j-FqKvEN-80" value="" style="endArrow=classic;html=1;rounded=0;entryX=0;entryY=0.5;entryDx=0;entryDy=0;entryPerimeter=0;exitX=0;exitY=0.5;exitDx=0;exitDy=0;exitPerimeter=0;dashed=1;" edge="1" parent="1" source="K3-YJQwZbEx7j-FqKvEN-30" target="K3-YJQwZbEx7j-FqKvEN-67">
          <mxGeometry width="50" height="50" relative="1" as="geometry">
            <mxPoint x="470" y="340" as="sourcePoint" />
            <mxPoint x="520" y="290" as="targetPoint" />
            <Array as="points">
              <mxPoint x="360" y="330" />
              <mxPoint x="360" y="231" />
            </Array>
          </mxGeometry>
        </mxCell>
        <mxCell id="K3-YJQwZbEx7j-FqKvEN-81" value="" style="shape=process;whiteSpace=wrap;html=1;backgroundOutline=1;" vertex="1" parent="1">
          <mxGeometry x="680" y="390" width="390" height="145" as="geometry" />
        </mxCell>
        <mxCell id="K3-YJQwZbEx7j-FqKvEN-82" value="Crontab" style="rounded=0;whiteSpace=wrap;html=1;" vertex="1" parent="1">
          <mxGeometry x="680" y="360" width="120" height="30" as="geometry" />
        </mxCell>
        <mxCell id="K3-YJQwZbEx7j-FqKvEN-83" value="&lt;span style=&quot;color: rgb(0, 0, 0); font-family: Helvetica; font-size: 12px; font-style: normal; font-variant-ligatures: normal; font-variant-caps: normal; font-weight: 400; letter-spacing: normal; orphans: 2; text-align: center; text-indent: 0px; text-transform: none; widows: 2; word-spacing: 0px; -webkit-text-stroke-width: 0px; background-color: rgb(251, 251, 251); text-decoration-thickness: initial; text-decoration-style: initial; text-decoration-color: initial; float: none; display: inline !important;&quot;&gt;Chaque 15min http://ip:8000/PredictTrade/IdCrypto&lt;/span&gt;" style="text;whiteSpace=wrap;html=1;" vertex="1" parent="1">
          <mxGeometry x="730" y="408" width="280" height="30" as="geometry" />
        </mxCell>
        <mxCell id="K3-YJQwZbEx7j-FqKvEN-85" value="&lt;span style=&quot;color: rgb(0, 0, 0); font-family: Helvetica; font-size: 12px; font-style: normal; font-variant-ligatures: normal; font-variant-caps: normal; font-weight: 400; letter-spacing: normal; orphans: 2; text-align: center; text-indent: 0px; text-transform: none; widows: 2; word-spacing: 0px; -webkit-text-stroke-width: 0px; background-color: rgb(251, 251, 251); text-decoration-thickness: initial; text-decoration-style: initial; text-decoration-color: initial; float: none; display: inline !important;&quot;&gt;Chaque jour http://ip:8000/PredictTrade/IdCrypto&lt;/span&gt;" style="text;whiteSpace=wrap;html=1;" vertex="1" parent="1">
          <mxGeometry x="730" y="430" width="280" height="30" as="geometry" />
        </mxCell>
        <mxCell id="K3-YJQwZbEx7j-FqKvEN-88" value="" style="endArrow=classic;html=1;rounded=0;entryX=1;entryY=0.5;entryDx=0;entryDy=0;exitX=0.75;exitY=0;exitDx=0;exitDy=0;" edge="1" parent="1" source="K3-YJQwZbEx7j-FqKvEN-81" target="K3-YJQwZbEx7j-FqKvEN-43">
          <mxGeometry width="50" height="50" relative="1" as="geometry">
            <mxPoint x="930" y="560" as="sourcePoint" />
            <mxPoint x="980" y="510" as="targetPoint" />
            <Array as="points">
              <mxPoint x="973" y="250" />
            </Array>
          </mxGeometry>
        </mxCell>
        <mxCell id="K3-YJQwZbEx7j-FqKvEN-89" value="" style="endArrow=classic;html=1;rounded=0;entryX=1;entryY=0.5;entryDx=0;entryDy=0;" edge="1" parent="1" target="K3-YJQwZbEx7j-FqKvEN-44">
          <mxGeometry width="50" height="50" relative="1" as="geometry">
            <mxPoint x="970" y="390" as="sourcePoint" />
            <mxPoint x="1000" y="300" as="targetPoint" />
            <Array as="points">
              <mxPoint x="970" y="295" />
            </Array>
          </mxGeometry>
        </mxCell>
      </root>
    </mxGraphModel>
  </diagram>
</mxfile>
